<?xml version="1.0" encoding="UTF-8" standalone="no"?>
<!-- Created with Inkscape (http://www.inkscape.org/) -->

<svg
   version="1.1"
   id="svg13308"
   xml:space="preserve"
   width="682.66669"
   height="682.66669"
   viewBox="0 0 682.66669 682.66669"
   xmlns="http://www.w3.org/2000/svg"
   xmlns:svg="http://www.w3.org/2000/svg"><defs
     id="defs13312"><clipPath
       clipPathUnits="userSpaceOnUse"
       id="clipPath13324"><path
         d="M 0,512 H 512 V 0 H 0 Z"
         id="path13322" /></clipPath></defs><g
     id="g13314"
     transform="matrix(1.3333333,0,0,-1.3333333,0,682.66667)"><path
       d="m 450.188,49.09 h -342.88 v 413.82 h 342.88 z"
       style="fill:#ffd592;fill-opacity:1;fill-rule:nonzero;stroke:none"
       id="path13316" /><g
       id="g13318"><g
         id="g13320"
         clip-path="url(#clipPath13324)"><g
           id="g13326"
           transform="translate(321.4932,353.0352)"><path
             d="m 0,0 7.957,-10.702 c 1.326,-1.783 1.297,-4.213 -0.02,-6.002 -3.467,-4.707 -7.835,-8.881 -13.032,-12.247 -38.229,-24.8 -67.87,-60.01 -97.86,-104.04 -27.17,-39.87 -63.369,-44.64 -63.369,-44.64 0,0 -18.361,35.5 -13.49,70.64 0.679,4.88 4.759,8.58 9.689,8.7 l 1.876,0.042 c 3.432,0.077 5.767,3.511 4.578,6.73 l -4.643,12.578 c -0.891,2.41 -0.84,5.09 0.2,7.44 22.719,51.48 61.529,95.91 108.609,126.45 23.17,15.02 54.13,8.42 69.16,-14.75 4.807,-7.425 7.404,-15.644 7.942,-23.883 0.153,-2.347 -1.321,-4.497 -3.576,-5.163 L 2.596,7.778 C -0.738,6.793 -2.074,2.79 0,0"
             style="fill:#fdc266;fill-opacity:1;fill-rule:nonzero;stroke:none"
             id="path13328" /></g><g
           id="g13330"
           transform="translate(107.3086,462.9102)"><path
             d="m 0,0 v -71.57 c 0.6,-0.02 1.21,-0.031 1.81,-0.031 h 276.162 c 13.505,0 24.451,-10.946 24.451,-24.451 v -317.761 h 40.461 V 0.001 Z"
             style="fill:#fdc266;fill-opacity:1;fill-rule:nonzero;stroke:none"
             id="path13332" /></g><g
           id="g13334"
           transform="translate(450.1924,371.1211)"><path
             d="M 0,0 V 91.786 H -342.88 V -322.028 H 0 v 286.633"
             style="fill:none;stroke:#000000;stroke-width:15;stroke-linecap:round;stroke-linejoin:round;stroke-miterlimit:10;stroke-dasharray:none;stroke-opacity:1"
             id="path13336" /></g><g
           id="g13338"
           transform="translate(107.3125,30.8574)"><path
             d="m 0,0 h -55.583 c -10.071,0 -18.235,8.164 -18.235,18.235 0,10.072 8.164,18.236 18.235,18.236 l 55.583,0 z"
             style="fill:#fd8609;fill-opacity:1;fill-rule:nonzero;stroke:none"
             id="path13340" /></g><g
           id="g13342"
           transform="translate(107.3125,30.8574)"><path
             d="m 0,0 h -55.583 c -10.071,0 -18.235,8.164 -18.235,18.235 0,10.072 8.164,18.236 18.235,18.236 l 55.583,0 z"
             style="fill:none;stroke:#000000;stroke-width:15;stroke-linecap:round;stroke-linejoin:round;stroke-miterlimit:10;stroke-dasharray:none;stroke-opacity:1"
             id="path13344" /></g><g
           id="g13346"
           transform="translate(412.6982,90.6904)"><path
             d="m 0,0 v -83.19 h -303.58 c -22.97,0 -41.59,18.62 -41.59,41.589 0,11.491 4.65,21.891 12.181,29.411 C -325.46,-4.66 -315.06,0 -303.58,0 Z"
             style="fill:#ffe7c7;fill-opacity:1;fill-rule:nonzero;stroke:none"
             id="path13348" /></g><g
           id="g13350"
           transform="translate(412.6982,90.6904)"><path
             d="m 0,0 v -83.19 h -56.979 c -9.141,11.4 -14.621,25.87 -14.621,41.589 0,15.731 5.48,30.201 14.63,41.601 z"
             style="fill:#ffd592;fill-opacity:1;fill-rule:nonzero;stroke:none"
             id="path13352" /></g><g
           id="g13354"
           transform="translate(412.6934,7.5)"><path
             d="m 0,0 h -303.57 c -22.972,0 -41.593,18.622 -41.593,41.593 0,22.971 18.621,41.593 41.593,41.593 H 0 Z"
             style="fill:none;stroke:#000000;stroke-width:15;stroke-linecap:round;stroke-linejoin:round;stroke-miterlimit:10;stroke-dasharray:none;stroke-opacity:1"
             id="path13356" /></g><g
           id="g13358"
           transform="translate(454.2861,49.0928)"><path
             d="m 0,0 c 0,-22.971 -18.621,-41.593 -41.593,-41.593 -22.97,0 -41.593,18.622 -41.593,41.593 0,22.972 18.623,41.593 41.593,41.593 C -18.621,41.593 0,22.972 0,0"
             style="fill:#ffe7c7;fill-opacity:1;fill-rule:nonzero;stroke:none"
             id="path13360" /></g><g
           id="g13362"
           transform="translate(454.2861,49.0928)"><path
             d="m 0,0 c 0,-22.971 -18.621,-41.593 -41.593,-41.593 -22.97,0 -41.593,18.622 -41.593,41.593 0,22.972 18.623,41.593 41.593,41.593 C -18.621,41.593 0,22.972 0,0 Z"
             style="fill:none;stroke:#000000;stroke-width:15;stroke-linecap:round;stroke-linejoin:round;stroke-miterlimit:10;stroke-dasharray:none;stroke-opacity:1"
             id="path13364" /></g><g
           id="g13366"
           transform="translate(468.4287,67.3301)"><path
             d="m 0,0 v -36.471 h -55.58 c -10.07,0 -18.24,8.16 -18.24,18.231 0,5.03 2.04,9.59 5.34,12.9 3.31,3.3 7.87,5.34 12.9,5.34 z"
             style="fill:#fd8609;fill-opacity:1;fill-rule:nonzero;stroke:none"
             id="path13368" /></g><g
           id="g13370"
           transform="translate(468.4287,67.3301)"><path
             d="m 0,0 v -36.471 h -33.61 c -2.951,5.421 -4.63,11.631 -4.63,18.231 0,6.599 1.679,12.82 4.63,18.24 z"
             style="fill:#fd7700;fill-opacity:1;fill-rule:nonzero;stroke:none"
             id="path13372" /></g><g
           id="g13374"
           transform="translate(468.4277,30.8574)"><path
             d="m 0,0 h -55.583 c -10.071,0 -18.235,8.164 -18.235,18.235 0,10.072 8.164,18.236 18.235,18.236 l 55.583,0 z"
             style="fill:none;stroke:#000000;stroke-width:15;stroke-linecap:round;stroke-linejoin:round;stroke-miterlimit:10;stroke-dasharray:none;stroke-opacity:1"
             id="path13376" /></g><g
           id="g13378"
           transform="translate(486.6631,49.0928)"><path
             d="m 0,0 c 0,-10.071 -8.164,-18.235 -18.235,-18.235 -10.072,0 -18.236,8.164 -18.236,18.235 0,10.071 8.164,18.235 18.236,18.235 C -8.164,18.235 0,10.071 0,0"
             style="fill:#feb541;fill-opacity:1;fill-rule:nonzero;stroke:none"
             id="path13380" /></g><g
           id="g13382"
           transform="translate(486.6631,49.0928)"><path
             d="m 0,0 c 0,-10.071 -8.164,-18.235 -18.235,-18.235 -10.072,0 -18.236,8.164 -18.236,18.235 0,10.071 8.164,18.235 18.236,18.235 C -8.164,18.235 0,10.071 0,0 Z"
             style="fill:none;stroke:#000000;stroke-width:15;stroke-linecap:round;stroke-linejoin:round;stroke-miterlimit:10;stroke-dasharray:none;stroke-opacity:1"
             id="path13384" /></g><g
           id="g13386"
           transform="translate(107.3125,444.6719)"><path
             d="m 0,0 h -55.583 c -10.071,0 -18.235,8.164 -18.235,18.235 0,10.072 8.164,18.236 18.235,18.236 l 55.583,0 z"
             style="fill:#fd8609;fill-opacity:1;fill-rule:nonzero;stroke:none"
             id="path13388" /></g><g
           id="g13390"
           transform="translate(107.3125,444.6719)"><path
             d="m 0,0 h -55.583 c -10.071,0 -18.235,8.164 -18.235,18.235 0,10.072 8.164,18.236 18.235,18.236 l 55.583,0 z"
             style="fill:none;stroke:#000000;stroke-width:15;stroke-linecap:round;stroke-linejoin:round;stroke-miterlimit:10;stroke-dasharray:none;stroke-opacity:1"
             id="path13392" /></g><g
           id="g13394"
           transform="translate(412.6982,504.5)"><path
             d="m 0,0 v -83.19 h -303.58 c -22.97,0 -41.59,18.63 -41.59,41.6 0,11.49 4.65,21.88 12.181,29.41 C -325.46,-4.66 -315.06,0 -303.58,0 Z"
             style="fill:#ffe7c7;fill-opacity:1;fill-rule:nonzero;stroke:none"
             id="path13396" /></g><g
           id="g13398"
           transform="translate(412.6982,504.5)"><path
             d="m 0,0 v -83.19 h -56.97 c -9.15,11.4 -14.63,25.87 -14.63,41.6 0,15.72 5.48,30.19 14.621,41.59 z"
             style="fill:#ffd592;fill-opacity:1;fill-rule:nonzero;stroke:none"
             id="path13400" /></g><g
           id="g13402"
           transform="translate(412.6934,421.3145)"><path
             d="m 0,0 h -303.57 c -22.972,0 -41.593,18.621 -41.593,41.593 0,22.97 18.621,41.593 41.593,41.593 H 0 Z"
             style="fill:none;stroke:#000000;stroke-width:15;stroke-linecap:round;stroke-linejoin:round;stroke-miterlimit:10;stroke-dasharray:none;stroke-opacity:1"
             id="path13404" /></g><g
           id="g13406"
           transform="translate(454.2861,462.9072)"><path
             d="m 0,0 c 0,-22.972 -18.621,-41.593 -41.593,-41.593 -22.97,0 -41.593,18.621 -41.593,41.593 0,22.971 18.623,41.593 41.593,41.593 C -18.621,41.593 0,22.971 0,0"
             style="fill:#ffe7c7;fill-opacity:1;fill-rule:nonzero;stroke:none"
             id="path13408" /></g><g
           id="g13410"
           transform="translate(454.2861,462.9072)"><path
             d="m 0,0 c 0,-22.972 -18.621,-41.593 -41.593,-41.593 -22.97,0 -41.593,18.621 -41.593,41.593 0,22.971 18.623,41.593 41.593,41.593 C -18.621,41.593 0,22.971 0,0 Z"
             style="fill:none;stroke:#000000;stroke-width:15;stroke-linecap:round;stroke-linejoin:round;stroke-miterlimit:10;stroke-dasharray:none;stroke-opacity:1"
             id="path13412" /></g><g
           id="g13414"
           transform="translate(468.4287,481.1406)"><path
             d="m 0,0 v -36.471 h -55.58 c -10.07,0 -18.24,8.17 -18.24,18.241 0,5.029 2.04,9.589 5.34,12.889 3.31,3.3 7.87,5.341 12.9,5.341 z"
             style="fill:#fd8609;fill-opacity:1;fill-rule:nonzero;stroke:none"
             id="path13416" /></g><g
           id="g13418"
           transform="translate(468.4287,481.1406)"><path
             d="m 0,0 v -36.471 h -33.61 c -2.951,5.42 -4.63,11.641 -4.63,18.241 0,6.599 1.679,12.809 4.63,18.23 z"
             style="fill:#fd7700;fill-opacity:1;fill-rule:nonzero;stroke:none"
             id="path13420" /></g><g
           id="g13422"
           transform="translate(468.4277,444.6719)"><path
             d="m 0,0 h -55.583 c -10.071,0 -18.235,8.164 -18.235,18.235 0,10.072 8.164,18.236 18.235,18.236 l 55.583,0 z"
             style="fill:none;stroke:#000000;stroke-width:15;stroke-linecap:round;stroke-linejoin:round;stroke-miterlimit:10;stroke-dasharray:none;stroke-opacity:1"
             id="path13424" /></g><g
           id="g13426"
           transform="translate(486.6631,462.9072)"><path
             d="m 0,0 c 0,-10.071 -8.164,-18.235 -18.235,-18.235 -10.072,0 -18.236,8.164 -18.236,18.235 0,10.071 8.164,18.235 18.236,18.235 C -8.164,18.235 0,10.071 0,0"
             style="fill:#feb541;fill-opacity:1;fill-rule:nonzero;stroke:none"
             id="path13428" /></g><g
           id="g13430"
           transform="translate(486.6631,462.9072)"><path
             d="m 0,0 c 0,-10.071 -8.164,-18.235 -18.235,-18.235 -10.072,0 -18.236,8.164 -18.236,18.235 0,10.071 8.164,18.235 18.236,18.235 C -8.164,18.235 0,10.071 0,0 Z"
             style="fill:none;stroke:#000000;stroke-width:15;stroke-linecap:round;stroke-linejoin:round;stroke-miterlimit:10;stroke-dasharray:none;stroke-opacity:1"
             id="path13432" /></g><g
           id="g13434"
           transform="translate(178.5361,118.3369)"><path
             d="m 0,0 v 51.474 c 0,5.523 -4.477,10 -10,10 h -95.936 c -5.522,0 -10,-4.477 -10,-10 V 0 Z"
             style="fill:#a2aee6;fill-opacity:1;fill-rule:nonzero;stroke:none"
             id="path13436" /></g><g
           id="g13438"
           transform="translate(178.5381,169.8105)"><path
             d="M 0,0 V -51.471 H -26.579 V 0 c 0,5.52 -4.481,10 -10,10 H -10 C -4.479,10 0,5.52 0,0"
             style="fill:#8795de;fill-opacity:1;fill-rule:nonzero;stroke:none"
             id="path13440" /></g><g
           id="g13442"
           transform="translate(178.5361,118.3369)"><path
             d="m 0,0 v 51.474 c 0,5.523 -4.477,10 -10,10 h -95.936 c -5.522,0 -10,-4.477 -10,-10 V 0 Z"
             style="fill:none;stroke:#000000;stroke-width:15;stroke-linecap:round;stroke-linejoin:round;stroke-miterlimit:10;stroke-dasharray:none;stroke-opacity:1"
             id="path13444" /></g><g
           id="g13446"
           transform="translate(205.8008,7.5)"><path
             d="m 0,0 h -170.464 c -5.522,0 -10,4.478 -10,10 v 101.722 c 0,5.523 4.478,10 10,10 H 0 c 5.522,0 10,-4.477 10,-10 V 10 C 10,4.478 5.522,0 0,0"
             style="fill:#5066d0;fill-opacity:1;fill-rule:nonzero;stroke:none"
             id="path13448" /></g><g
           id="g13450"
           transform="translate(215.7988,119.2197)"><path
             d="m 0,0 v -101.72 c 0,-5.519 -4.48,-10 -10,-10 h -32.261 c 5.521,0 10,4.481 10,10 V 0 c 0,5.521 -4.479,10 -10,10 H -10 C -4.48,10 0,5.521 0,0"
             style="fill:#314dc8;fill-opacity:1;fill-rule:nonzero;stroke:none"
             id="path13452" /></g><g
           id="g13454"
           transform="translate(215.8008,74.666)"><path
             d="m 0,0 v 44.556 c 0,5.522 -4.478,10 -10,10 h -170.464 c -5.522,0 -10,-4.478 -10,-10 V -57.166 c 0,-5.523 4.478,-10 10,-10 H -10 c 5.522,0 10,4.477 10,10 v 21.77"
             style="fill:none;stroke:#000000;stroke-width:15;stroke-linecap:round;stroke-linejoin:round;stroke-miterlimit:10;stroke-dasharray:none;stroke-opacity:1"
             id="path13456" /></g><g
           id="g13458"
           transform="translate(57.6006,155.4883)"><path
             d="M 0,0 H 125.936"
             style="fill:none;stroke:#000000;stroke-width:15;stroke-linecap:round;stroke-linejoin:round;stroke-miterlimit:10;stroke-dasharray:none;stroke-opacity:1"
             id="path13460" /></g><path
           d="M 177.136,38.499 H 64.002 v 59.833 h 113.134 z"
           style="fill:#f2eff2;fill-opacity:1;fill-rule:nonzero;stroke:none"
           id="path13462" /><path
           d="m 148.818,38.499 h 28.317 v 59.833 h -28.317 z"
           style="fill:#cbc5cb;fill-opacity:1;fill-rule:nonzero;stroke:none"
           id="path13464" /><path
           d="M 177.136,38.499 H 64.002 v 59.833 h 113.134 z"
           style="fill:none;stroke:#000000;stroke-width:15;stroke-linecap:round;stroke-linejoin:round;stroke-miterlimit:10;stroke-dasharray:none;stroke-opacity:1"
           id="path13466" /><g
           id="g13468"
           transform="translate(321.4932,388.9912)"><path
             d="m 0,0 7.957,-10.702 c 1.326,-1.783 1.297,-4.213 -0.02,-6.002 -3.467,-4.707 -7.835,-8.881 -13.032,-12.247 -38.229,-24.8 -67.87,-60.01 -97.86,-104.04 -27.17,-39.87 -63.369,-44.641 -63.369,-44.641 0,0 -18.361,35.5 -13.49,70.641 0.679,4.88 4.759,8.58 9.689,8.7 l 1.876,0.042 c 3.432,0.077 5.767,3.511 4.578,6.73 l -4.643,12.578 c -0.891,2.41 -0.84,5.09 0.2,7.44 22.719,51.48 61.529,95.91 108.609,126.449 23.17,15.021 54.13,8.42 69.16,-14.75 4.807,-7.424 7.404,-15.643 7.942,-23.882 0.153,-2.347 -1.321,-4.497 -3.576,-5.163 L 2.596,7.778 C -0.738,6.793 -2.074,2.79 0,0"
             style="fill:#60b8ff;fill-opacity:1;fill-rule:nonzero;stroke:none"
             id="path13470" /></g><g
           id="g13472"
           transform="translate(321.4932,388.9912)"><path
             d="m 0,0 7.957,-10.702 c 1.326,-1.783 1.297,-4.213 -0.02,-6.002 -3.467,-4.707 -7.835,-8.881 -13.032,-12.247 -38.229,-24.8 -67.87,-60.01 -97.86,-104.04 -27.17,-39.87 -63.369,-44.641 -63.369,-44.641 0,0 -2.21,4.261 -4.881,11.301 11.03,6.64 23.62,17.06 34.7,33.34 30,44.03 59.641,79.24 97.87,104.04 23.17,15.02 29.771,45.979 14.75,69.149 -6.229,9.601 -15.189,16.351 -25.189,19.901 21.34,7.62 45.869,-0.071 58.729,-19.901 4.807,-7.424 7.404,-15.643 7.942,-23.882 0.153,-2.347 -1.321,-4.497 -3.576,-5.163 L 2.596,7.778 C -0.738,6.793 -2.074,2.79 0,0"
             style="fill:#26a5fe;fill-opacity:1;fill-rule:nonzero;stroke:none"
             id="path13474" /></g><g
           id="g13476"
           transform="translate(267.8525,318.9639)"><path
             d="m 0,0 c 14.929,15.825 30.812,29.572 48.546,41.076 5.196,3.366 9.564,7.54 13.031,12.247 1.318,1.789 1.347,4.219 0.021,6.002 l -7.957,10.702 c -2.076,2.79 -0.739,6.794 2.595,7.779 l 11.425,3.375 c 2.256,0.666 3.73,2.814 3.576,5.163 -0.538,8.238 -3.134,16.458 -7.941,23.882 -15.029,23.17 -45.99,29.77 -69.16,14.75 -47.08,-30.539 -85.89,-74.97 -108.61,-126.45 -1.04,-2.349 -1.089,-5.03 -0.2,-7.44 l 4.644,-12.577 c 1.188,-3.221 -1.147,-6.654 -4.578,-6.731 l -1.875,-0.042 c -4.931,-0.12 -9.011,-3.82 -9.691,-8.7 -4.87,-35.14 13.49,-70.64 13.49,-70.64 0,0 36.201,4.77 63.371,44.64 8.744,12.839 17.46,24.922 26.367,36.221"
             style="fill:none;stroke:#000000;stroke-width:15;stroke-linecap:round;stroke-linejoin:round;stroke-miterlimit:10;stroke-dasharray:none;stroke-opacity:1"
             id="path13478" /></g><g
           id="g13480"
           transform="translate(147.8721,179.8105)"><path
             d="M 0,0 C 0,0 21.021,144.159 141.326,222.177"
             style="fill:none;stroke:#000000;stroke-width:15;stroke-linecap:round;stroke-linejoin:round;stroke-miterlimit:10;stroke-dasharray:none;stroke-opacity:1"
             id="path13482" /></g><g
           id="g13484"
           transform="translate(300.3086,291.6211)"><path
             d="M 0,0 H 60.886"
             style="fill:none;stroke:#000000;stroke-width:15;stroke-linecap:round;stroke-linejoin:round;stroke-miterlimit:10;stroke-dasharray:none;stroke-opacity:1"
             id="path13486" /></g><g
           id="g13488"
           transform="translate(215.3086,249.0479)"><path
             d="M 0,0 H 145.886"
             style="fill:none;stroke:#000000;stroke-width:15;stroke-linecap:round;stroke-linejoin:round;stroke-miterlimit:10;stroke-dasharray:none;stroke-opacity:1"
             id="path13490" /></g><g
           id="g13492"
           transform="translate(215.3086,219.8574)"><path
             d="M 0,0 H 145.886"
             style="fill:none;stroke:#000000;stroke-width:15;stroke-linecap:round;stroke-linejoin:round;stroke-miterlimit:10;stroke-dasharray:none;stroke-opacity:1"
             id="path13494" /></g><g
           id="g13496"
           transform="translate(215.3086,190.666)"><path
             d="M 0,0 H 145.886"
             style="fill:none;stroke:#000000;stroke-width:15;stroke-linecap:round;stroke-linejoin:round;stroke-miterlimit:10;stroke-dasharray:none;stroke-opacity:1"
             id="path13498" /></g><g
           id="g13500"
           transform="translate(215.3086,161.4746)"><path
             d="M 0,0 H 145.886"
             style="fill:none;stroke:#000000;stroke-width:15;stroke-linecap:round;stroke-linejoin:round;stroke-miterlimit:10;stroke-dasharray:none;stroke-opacity:1"
             id="path13502" /></g><g
           id="g13504"
           transform="translate(361.1943,332.4004)"><path
             d="M 0,0 V -8.715"
             style="fill:none;stroke:#000000;stroke-width:15;stroke-linecap:round;stroke-linejoin:round;stroke-miterlimit:10;stroke-dasharray:none;stroke-opacity:1"
             id="path13506" /></g><g
           id="g13508"
           transform="translate(337.5166,332.4004)"><path
             d="M 0,0 V -8.715"
             style="fill:none;stroke:#000000;stroke-width:15;stroke-linecap:round;stroke-linejoin:round;stroke-miterlimit:10;stroke-dasharray:none;stroke-opacity:1"
             id="path13510" /></g></g></g></g></svg>
