<svg version="1.1" id="Capa_1" xmlns="http://www.w3.org/2000/svg" xmlns:xlink="http://www.w3.org/1999/xlink" x="0px" y="0px" viewBox="0 0 512 512" style="enable-background:new 0 0 512 512;" xml:space="preserve">
<g>
	<g>
		<path style="fill:#FE93BB;" d="M484.5,459.56H52.206c-11.046,0-20-8.954-20-20V128.003c0-11.046,8.954-20,20-20H484.5&#10;&#9;&#9;&#9;c11.046,0,20,8.954,20,20V439.56C504.5,450.606,495.546,459.56,484.5,459.56z"/>
		<path style="fill:#F5FCFF;" d="M450.519,83.773c10.497,0,19.006,8.509,19.006,19.006v293.813c0,10.497-8.509,19.006-19.006,19.006&#10;&#9;&#9;&#9;H268.353V121.785c0-20.993,17.018-38.012,38.012-38.012H450.519z"/>
		<path style="fill:#E7F8FE;" d="M268.353,121.785v182.373h68.998v-48.333c0-5.589,3.155-10.662,8.109-13.251&#10;&#9;&#9;&#9;c35.05-18.317,58.973-55.016,58.973-97.304c0-22.79-6.952-43.955-18.846-61.497h-79.223&#10;&#9;&#9;&#9;C285.371,83.773,268.353,100.791,268.353,121.785z"/>
		<path style="fill:#F5FCFF;" d="M86.187,83.773c-10.497,0-19.006,8.509-19.006,19.006v293.813c0,10.497,8.509,19.006,19.006,19.006&#10;&#9;&#9;&#9;h182.166V121.785c0-20.993-17.018-38.012-38.012-38.012H86.187z"/>
		<path style="fill:#E7F8FE;" d="M166.535,291.531v-14.598c0-16.739-13.57-30.309-30.309-30.309H67.181v149.967&#10;&#9;&#9;&#9;c0,10.497,8.509,19.006,19.006,19.006h182.166V352.15c0-16.739-13.57-30.309-30.309-30.309h-41.2&#10;&#9;&#9;&#9;C180.105,321.841,166.535,308.271,166.535,291.531z"/>
		<path style="fill:#C3ECFF;" d="M268.353,415.597H86.187c-10.497,0-19.006-8.509-19.006-19.006v-29.119h153.658&#10;&#9;&#9;&#9;c26.242,0,47.515,11.77,47.515,38.012V415.597z"/>
		<path style="fill:#A4E4FF;" d="M268.353,415.597h182.166c10.497,0,19.006-8.509,19.006-19.006v-29.119H315.867&#10;&#9;&#9;&#9;c-26.242,0-47.514,11.77-47.514,38.012V415.597z"/>
		<path style="fill:#FFE177;" d="M367.55,116.565c0-54.577-44.076-98.86-98.575-99.195c-54.732-0.336-99.819,44.463-99.819,99.196&#10;&#9;&#9;&#9;c0,38.291,21.697,71.515,53.467,88.049c4.428,2.305,7.181,6.908,7.181,11.9v43.698h77.098v-43.697c0-5.053,2.852-9.64,7.331-11.98&#10;&#9;&#9;&#9;C345.921,187.975,367.55,154.796,367.55,116.565z"/>
		<path style="fill:#FFE177;" d="M367.55,116.565c0-54.577-44.076-98.86-98.575-99.195c-54.732-0.336-99.819,44.463-99.819,99.196&#10;&#9;&#9;&#9;c0,38.291,21.697,71.515,53.467,88.049c4.428,2.305,7.181,6.908,7.181,11.9v43.698h77.098v-43.697c0-5.053,2.852-9.64,7.331-11.98&#10;&#9;&#9;&#9;C345.921,187.975,367.55,154.796,367.55,116.565z"/>
		<path style="fill:#AFC9D3;" d="M279.537,306.566h-22.367c-12.651,0-22.908-10.256-22.908-22.908v-2.972h68.182v2.972&#10;&#9;&#9;&#9;C302.444,296.31,292.188,306.566,279.537,306.566z"/>
		<path style="fill:#DDEBEE;" d="M302.288,251.882h-67.87c-7.041,0-12.749-5.708-12.749-12.749v-3.308&#10;&#9;&#9;&#9;c0-7.041,5.708-12.749,12.749-12.749h67.87c7.041,0,12.749,5.708,12.749,12.749v3.308&#10;&#9;&#9;&#9;C315.037,246.174,309.329,251.882,302.288,251.882z"/>
		<path style="fill:#AFC9D3;" d="M302.288,280.687h-67.87c-7.041,0-12.749-5.708-12.749-12.749v-3.308&#10;&#9;&#9;&#9;c0-7.041,5.708-12.749,12.749-12.749h67.87c7.041,0,12.749,5.708,12.749,12.749v3.308&#10;&#9;&#9;&#9;C315.037,274.98,309.329,280.687,302.288,280.687z"/>
		<path style="fill:#FFDFCF;" d="M141.404,315.311c0-14.122-6.904-27.352-18.488-35.429h0c-5.675-5.675-15.377-1.656-15.377,6.369&#10;&#9;&#9;&#9;v14.107c0,32.324-26.88,53.453-41.025,58.405v23.781c0,25.843,30.514,39.574,49.856,22.436l0,0&#10;&#9;&#9;&#9;c17.926-17.926,17.299-46.023,17.299-46.023s7.735-31.628,7.735-37.573V315.311z"/>
		<path style="fill:#FFDFCF;" d="M14.099,360.391l175.111-0.951l-12.798,135.192H104.25c-20.231,0-37.51-12.59-44.462-30.358H14.099&#10;&#9;&#9;&#9;c-3.645,0-6.599-2.955-6.599-6.599V366.99C7.5,363.345,10.455,360.391,14.099,360.391z"/>
		<path style="fill:#FFCEBF;" d="M138.232,476.003L138.232,476.003c0,10.289,8.341,18.629,18.629,18.629h28.189&#10;&#9;&#9;&#9;c10.289,0,18.629-8.341,18.629-18.629l0,0c0-10.289-8.341-18.629-18.629-18.629h-28.189&#10;&#9;&#9;&#9;C146.573,457.374,138.232,465.714,138.232,476.003z"/>
		<path style="fill:#FFCEBF;" d="M146.208,437.303v2.884c0,9.492,7.695,17.187,17.187,17.187h32.871&#10;&#9;&#9;&#9;c9.492,0,17.187-7.695,17.187-17.187v-2.884c0-9.492-7.695-17.187-17.187-17.187h-32.871&#10;&#9;&#9;&#9;C153.903,420.115,146.208,427.81,146.208,437.303z"/>
		<path style="fill:#FFCEBF;" d="M155.083,400.044v2.884c0,9.492,7.695,17.187,17.187,17.187h32.871&#10;&#9;&#9;&#9;c9.492,0,17.187-7.695,17.187-17.187v-2.884c0-9.492-7.695-17.187-17.187-17.187h-32.871&#10;&#9;&#9;&#9;C162.778,382.857,155.083,390.552,155.083,400.044z"/>
		<path style="fill:#FFCEBF;" d="M163.959,362.786v2.884c0,9.492,7.695,17.187,17.187,17.187h32.871&#10;&#9;&#9;&#9;c9.492,0,17.187-7.695,17.187-17.187v-2.884c0-9.492-7.695-17.187-17.187-17.187h-32.871&#10;&#9;&#9;&#9;C171.654,345.598,163.959,353.293,163.959,362.786z"/>
	</g>
	<g>
		<path style="fill:none;stroke:#000000;stroke-width:15;stroke-linecap:round;stroke-linejoin:round;stroke-miterlimit:10;" d="&#10;&#9;&#9;&#9;M32.206,359.363V127.009c0-10.497,8.509-19.006,19.006-19.006h10.545"/>
		
			<line style="fill:none;stroke:#000000;stroke-width:15;stroke-linecap:round;stroke-linejoin:round;stroke-miterlimit:10;" x1="373.404" y1="459.56" x2="203.68" y2="459.56"/>
		<path style="fill:none;stroke:#000000;stroke-width:15;stroke-linecap:round;stroke-linejoin:round;stroke-miterlimit:10;" d="&#10;&#9;&#9;&#9;M469.525,108.003h15.969c10.497,0,19.006,8.509,19.006,19.006v313.545c0,10.497-8.509,19.006-19.006,19.006h-77.091"/>
		<path style="fill:none;stroke:#000000;stroke-width:15;stroke-linecap:round;stroke-linejoin:round;stroke-miterlimit:10;" d="&#10;&#9;&#9;&#9;M136.956,83.773H86.187c-10.497,0-19.006,8.509-19.006,19.006v252.486"/>
		<path style="fill:none;stroke:#000000;stroke-width:15;stroke-linecap:round;stroke-linejoin:round;stroke-miterlimit:10;" d="&#10;&#9;&#9;&#9;M363.945,83.773h86.574c10.497,0,19.006,8.509,19.006,19.006v293.813c0,10.497-8.509,19.006-19.006,19.006H268.353V306.967"/>
		<path style="fill:none;stroke:#000000;stroke-width:15;stroke-linecap:round;stroke-linejoin:round;stroke-miterlimit:10;" d="&#10;&#9;&#9;&#9;M231.322,368.145c21.198,2.832,37.031,14.7,37.031,37.339v10.113"/>
		<path style="fill:none;stroke:#000000;stroke-width:15;stroke-linecap:round;stroke-linejoin:round;stroke-miterlimit:10;" d="&#10;&#9;&#9;&#9;M268.353,415.597h182.166c10.497,0,19.006-8.509,19.006-19.006v-29.119H315.867c-26.242,0-47.514,11.77-47.514,38.012V415.597z"/>
		<path style="fill:none;stroke:#000000;stroke-width:15;stroke-linecap:round;stroke-linejoin:round;stroke-miterlimit:10;" d="&#10;&#9;&#9;&#9;M306.902,217.548v-1.032c0-5.053,2.852-9.64,7.331-11.98c31.688-16.56,53.317-49.74,53.317-87.971&#10;&#9;&#9;&#9;c0-54.577-44.076-98.86-98.575-99.195c-54.732-0.336-99.819,44.463-99.819,99.196c0,38.291,21.697,71.515,53.467,88.049&#10;&#9;&#9;&#9;c4.428,2.305,7.181,6.908,7.181,11.9v1.18"/>
		<path style="fill:none;stroke:#000000;stroke-width:15;stroke-linecap:round;stroke-linejoin:round;stroke-miterlimit:10;" d="&#10;&#9;&#9;&#9;M302.288,251.882h-67.87c-7.041,0-12.749-5.708-12.749-12.749v-3.308c0-7.041,5.708-12.749,12.749-12.749h67.87&#10;&#9;&#9;&#9;c7.041,0,12.749,5.708,12.749,12.749v3.308C315.037,246.174,309.329,251.882,302.288,251.882z"/>
		<path style="fill:none;stroke:#000000;stroke-width:15;stroke-linecap:round;stroke-linejoin:round;stroke-miterlimit:10;" d="&#10;&#9;&#9;&#9;M302.288,280.687h-67.87c-7.041,0-12.749-5.708-12.749-12.749v-3.308c0-7.041,5.708-12.749,12.749-12.749h67.87&#10;&#9;&#9;&#9;c7.041,0,12.749,5.708,12.749,12.749v3.308C315.037,274.98,309.329,280.687,302.288,280.687z"/>
		<path style="fill:none;stroke:#000000;stroke-width:15;stroke-linecap:round;stroke-linejoin:round;stroke-miterlimit:10;" d="&#10;&#9;&#9;&#9;M279.537,306.566h-22.367c-12.651,0-22.908-10.256-22.908-22.908v-2.972h68.182v2.972&#10;&#9;&#9;&#9;C302.444,296.31,292.188,306.566,279.537,306.566z"/>
		<path style="fill:none;stroke:#000000;stroke-width:15;stroke-linecap:round;stroke-linejoin:round;stroke-miterlimit:10;" d="&#10;&#9;&#9;&#9;M45.501,360.392h16.207h0c11.47-0.729,45.831-22.979,45.831-59.519v-12.452c0-7.906,8.892-12.546,15.377-8.024l0,0&#10;&#9;&#9;&#9;c11.584,8.077,18.488,21.307,18.488,35.429v6.074c0,5.945-7.735,37.573-7.735,37.573s0.627,28.097-17.299,46.023"/>
		<path style="fill:none;stroke:#000000;stroke-width:15;stroke-linecap:round;stroke-linejoin:round;stroke-miterlimit:10;" d="&#10;&#9;&#9;&#9;M59.788,464.274H14.099c-3.645,0-6.599-2.955-6.599-6.599V366.99c0-3.645,2.955-6.599,6.599-6.599h36.217"/>
		<path style="fill:none;stroke:#000000;stroke-width:15;stroke-linecap:round;stroke-linejoin:round;stroke-miterlimit:10;" d="&#10;&#9;&#9;&#9;M57.103,454.442c3.619,22.779,23.35,40.19,47.147,40.19h79.237"/>
		<path style="fill:none;stroke:#000000;stroke-width:15;stroke-linecap:round;stroke-linejoin:round;stroke-miterlimit:10;" d="&#10;&#9;&#9;&#9;M138.232,476.003L138.232,476.003c0,10.289,8.341,18.629,18.629,18.629h28.189c10.289,0,18.629-8.341,18.629-18.629l0,0&#10;&#9;&#9;&#9;c0-10.289-8.341-18.629-18.629-18.629h-28.189C146.573,457.374,138.232,465.714,138.232,476.003z"/>
		<path style="fill:none;stroke:#000000;stroke-width:15;stroke-linecap:round;stroke-linejoin:round;stroke-miterlimit:10;" d="&#10;&#9;&#9;&#9;M146.208,437.303v2.884c0,9.492,7.695,17.187,17.187,17.187h32.871c9.492,0,17.187-7.695,17.187-17.187v-2.884&#10;&#9;&#9;&#9;c0-9.492-7.695-17.187-17.187-17.187h-32.871C153.903,420.115,146.208,427.81,146.208,437.303z"/>
		<path style="fill:none;stroke:#000000;stroke-width:15;stroke-linecap:round;stroke-linejoin:round;stroke-miterlimit:10;" d="&#10;&#9;&#9;&#9;M155.083,400.044v2.884c0,9.492,7.695,17.187,17.187,17.187h32.871c9.492,0,17.187-7.695,17.187-17.187v-2.884&#10;&#9;&#9;&#9;c0-9.492-7.695-17.187-17.187-17.187h-32.871C162.778,382.857,155.083,390.552,155.083,400.044z"/>
		<path style="fill:none;stroke:#000000;stroke-width:15;stroke-linecap:round;stroke-linejoin:round;stroke-miterlimit:10;" d="&#10;&#9;&#9;&#9;M163.959,362.786v2.884c0,9.492,7.695,17.187,17.187,17.187h32.871c9.492,0,17.187-7.695,17.187-17.187v-2.884&#10;&#9;&#9;&#9;c0-9.492-7.695-17.187-17.187-17.187h-32.871C171.654,345.598,163.959,353.293,163.959,362.786z"/>
		
			<line style="fill:none;stroke:#000000;stroke-width:15;stroke-linecap:round;stroke-linejoin:round;stroke-miterlimit:10;" x1="135.988" y1="359.363" x2="161.134" y2="359.363"/>
		
			<line style="fill:none;stroke:#000000;stroke-width:15;stroke-linecap:round;stroke-linejoin:round;stroke-miterlimit:10;" x1="368.939" y1="208.225" x2="432.498" y2="208.225"/>
		
			<line style="fill:none;stroke:#000000;stroke-width:15;stroke-linecap:round;stroke-linejoin:round;stroke-miterlimit:10;" x1="368.939" y1="243.285" x2="432.498" y2="243.285"/>
		
			<line style="fill:none;stroke:#000000;stroke-width:15;stroke-linecap:round;stroke-linejoin:round;stroke-miterlimit:10;" x1="355.263" y1="278.344" x2="432.498" y2="278.344"/>
		
			<line style="fill:none;stroke:#000000;stroke-width:15;stroke-linecap:round;stroke-linejoin:round;stroke-miterlimit:10;" x1="330.4" y1="313.404" x2="432.498" y2="313.404"/>
		
			<line style="fill:none;stroke:#000000;stroke-width:15;stroke-linecap:round;stroke-linejoin:round;stroke-miterlimit:10;" x1="167.767" y1="208.225" x2="104.208" y2="208.225"/>
		
			<line style="fill:none;stroke:#000000;stroke-width:15;stroke-linecap:round;stroke-linejoin:round;stroke-miterlimit:10;" x1="167.767" y1="243.285" x2="104.208" y2="243.285"/>
		
			<line style="fill:none;stroke:#000000;stroke-width:15;stroke-linecap:round;stroke-linejoin:round;stroke-miterlimit:10;" x1="251.271" y1="115.027" x2="251.271" y2="154.603"/>
		
			<line style="fill:none;stroke:#000000;stroke-width:15;stroke-linecap:round;stroke-linejoin:round;stroke-miterlimit:10;" x1="285.435" y1="115.027" x2="285.435" y2="154.603"/>
		
			<line style="fill:none;stroke:#000000;stroke-width:15;stroke-linecap:round;stroke-linejoin:round;stroke-miterlimit:10;" x1="268.353" y1="415.597" x2="221.669" y2="415.597"/>
	</g>
</g>
<g>
</g>
<g>
</g>
<g>
</g>
<g>
</g>
<g>
</g>
<g>
</g>
<g>
</g>
<g>
</g>
<g>
</g>
<g>
</g>
<g>
</g>
<g>
</g>
<g>
</g>
<g>
</g>
<g>
</g>
</svg>