<?xml version="1.0" encoding="UTF-8"?>
<svg xmlns="http://www.w3.org/2000/svg" xmlns:xlink="http://www.w3.org/1999/xlink" version="1.1" id="Capa_1" x="0px" y="0px" viewBox="0 0 511.982 511.982" style="enable-background:new 0 0 511.982 511.982;" xml:space="preserve" width="512" height="512">
<g>
	
		<rect x="21.306" y="21.305" transform="matrix(-1 -1.224647e-16 1.224647e-16 -1 97.8316 70.22)" style="fill:#FD6930;" width="55.22" height="27.61"/>
	<rect x="435.456" y="21.305" style="fill:#FD6930;" width="55.22" height="27.61"/>
	<path style="fill:#0681AF;" d="M435.461,48.915v372.17c0,0.41-0.24,0.78-0.61,0.95l-25.52,11.78c-0.69,0.32-1.48-0.19-1.48-0.95&#10;&#9;&#9;V380.55c0-0.74-0.767-1.23-1.439-0.92l-25.583,11.814c-0.359,0.166-0.589,0.525-0.589,0.92v54.211c0,0.41-0.24,0.78-0.61,0.95&#10;&#9;&#9;l-25.52,11.77c-0.69,0.32-1.49-0.18-1.49-0.95v-52.295c0-0.74-0.767-1.23-1.439-0.92l-25.573,11.804&#10;&#9;&#9;c-0.359,0.166-0.589,0.525-0.589,0.92v54.202c0,0.41-0.24,0.78-0.61,0.95l-25.52,11.78c-0.69,0.32-1.49-0.19-1.49-0.95v-52.305&#10;&#9;&#9;c0-0.74-0.767-1.23-1.439-0.92l-25.573,11.804c-0.359,0.166-0.589,0.525-0.589,0.92v54.211c0,0.41-0.24,0.78-0.61,0.95l-12.76,5.89&#10;&#9;&#9;c-0.279,0.129-0.601,0.129-0.88,0l-12.76-5.89c-0.37-0.17-0.6-0.54-0.6-0.95v-53.801c0-0.395-0.23-0.755-0.589-0.92l-25.583-11.804&#10;&#9;&#9;c-0.672-0.31-1.438,0.181-1.438,0.92v51.896c0,0.76-0.8,1.27-1.49,0.95l-25.52-11.78c-0.37-0.17-0.6-0.54-0.6-0.95v-53.792&#10;&#9;&#9;c0-0.395-0.23-0.755-0.589-0.92L160.8,405.529c-0.672-0.31-1.439,0.18-1.439,0.92v51.895c0,0.77-0.8,1.27-1.49,0.95l-25.52-11.77&#10;&#9;&#9;c-0.37-0.17-0.6-0.54-0.6-0.95v-53.801c0-0.395-0.23-0.755-0.589-0.92l-25.592-11.814c-0.672-0.31-1.439,0.181-1.439,0.92v51.906&#10;&#9;&#9;c0,0.76-0.79,1.27-1.48,0.95l-25.52-11.78c-0.37-0.17-0.6-0.54-0.6-0.95V48.915H435.461z"/>
	<path style="fill:#017297;" d="M395.461,48.915v245.566c0,31.538-18.337,60.199-46.971,73.417l-99.054,45.725&#10;&#9;&#9;c-21.5,9.925-46.27,9.927-67.772,0.005L76.531,365.113v55.972c0,0.41,0.23,0.78,0.6,0.95l25.52,11.78&#10;&#9;&#9;c0.69,0.32,1.48-0.19,1.48-0.95v-51.906c0-0.74,0.767-1.23,1.439-0.92l25.592,11.814c0.359,0.166,0.589,0.525,0.589,0.92v53.801&#10;&#9;&#9;c0,0.41,0.23,0.78,0.6,0.95l25.52,11.77c0.69,0.32,1.49-0.18,1.49-0.95V406.45c0-0.74,0.767-1.23,1.439-0.92l25.582,11.814&#10;&#9;&#9;c0.359,0.166,0.589,0.525,0.589,0.92v53.792c0,0.41,0.23,0.78,0.6,0.95l25.52,11.78c0.69,0.32,1.49-0.19,1.49-0.95v-51.896&#10;&#9;&#9;c0-0.74,0.767-1.23,1.438-0.92l25.583,11.804c0.359,0.166,0.589,0.525,0.589,0.92v53.801c0,0.41,0.23,0.78,0.6,0.95l12.76,5.89&#10;&#9;&#9;c0.279,0.129,0.601,0.129,0.88,0l12.76-5.89c0.37-0.17,0.61-0.54,0.61-0.95v-54.211c0-0.396,0.23-0.755,0.589-0.92l25.573-11.804&#10;&#9;&#9;c0.672-0.31,1.439,0.181,1.439,0.92v52.305c0,0.76,0.8,1.27,1.49,0.95l25.52-11.78c0.37-0.17,0.61-0.54,0.61-0.95v-54.202&#10;&#9;&#9;c0-0.395,0.23-0.755,0.589-0.92l25.573-11.804c0.672-0.31,1.438,0.181,1.438,0.92v52.295c0,0.77,0.8,1.27,1.49,0.95l25.52-11.77&#10;&#9;&#9;c0.37-0.17,0.61-0.54,0.61-0.95v-54.211c0-0.395,0.23-0.755,0.589-0.92l25.583-11.814c0.672-0.31,1.439,0.18,1.439,0.92v52.315&#10;&#9;&#9;c0,0.76,0.79,1.27,1.48,0.95l25.52-11.78c0.37-0.17,0.61-0.54,0.61-0.95V48.915H395.461z"/>
	
		<rect x="325.226" y="231.431" transform="matrix(0.7071 -0.7071 0.7071 0.7071 -90.582 319.4114)" style="fill:#FD4755;" width="30.093" height="75.233"/>
	
		<rect x="156.662" y="231.431" transform="matrix(0.7071 0.7071 -0.7071 0.7071 240.5379 -42.6143)" style="fill:#01C0FA;" width="30.093" height="75.233"/>
	<polygon style="fill:#BAD6E5;" points="219.587,263.728 177.029,221.17 272.785,104.135 336.622,104.135 336.622,167.972 &#9;"/>
	<polygon style="fill:#D8E8F0;" points="334.953,221.17 292.395,263.728 175.36,167.972 175.36,104.135 239.197,104.135 &#9;"/>
	<path style="fill:#FFC344;" d="M342.471,234.931l-36.315,36.315c-7.6,7.6-19.922,7.6-27.522,0l-6.684-6.684&#10;&#9;&#9;c-0.461-0.461-0.461-1.208,0-1.668l62.169-62.169c0.461-0.461,1.208-0.461,1.668,0l6.684,6.684&#10;&#9;&#9;C350.071,215.009,350.071,227.331,342.471,234.931z"/>
	<path style="fill:#FFC344;" d="M394.437,289.361l-33.851,33.851c-2.404,2.404-6.303,2.404-8.707,0l-8.727-8.727&#10;&#9;&#9;c-4.528-4.528-4.528-11.869,0-16.397l26.161-26.161c4.528-4.528,11.869-4.528,16.397,0l8.727,8.727&#10;&#9;&#9;C396.841,283.058,396.841,286.956,394.437,289.361z"/>
	<path style="fill:#FEB237;" d="M395.461,288.008c1.039-1.859,1.039-4.143,0-6.002V288.008z"/>
	<path style="fill:#FFC344;" d="M205.826,271.246l-36.315-36.315c-7.6-7.6-7.6-19.922,0-27.522l6.684-6.684&#10;&#9;&#9;c0.461-0.461,1.208-0.461,1.668,0l62.169,62.169c0.461,0.461,0.461,1.208,0,1.668l-6.684,6.684&#10;&#9;&#9;C225.748,278.846,213.426,278.846,205.826,271.246z"/>
	<path style="fill:#FFC344;" d="M151.396,323.212l-33.851-33.851c-2.404-2.404-2.404-6.303,0-8.707l8.727-8.727&#10;&#9;&#9;c4.528-4.528,11.869-4.528,16.397,0l26.161,26.161c4.528,4.528,4.528,11.869,0,16.397l-8.727,8.727&#10;&#9;&#9;C157.699,325.616,153.801,325.616,151.396,323.212z"/>
	<path style="fill:#3692BC;" d="M448.136,62.72H63.846c-0.621,0-1.125-0.504-1.125-1.125V8.625c0-0.621,0.504-1.125,1.125-1.125&#10;&#9;&#9;h384.29c0.621,0,1.125,0.504,1.125,1.125v52.97C449.261,62.216,448.757,62.72,448.136,62.72z"/>
	<path style="fill:#FE7D43;" d="M29.22,62.72H9.08c-0.872,0-1.58-0.707-1.58-1.58V9.08c0-0.872,0.707-1.58,1.58-1.58h20.14&#10;&#9;&#9;c3.253,0,5.89,2.637,5.89,5.89V56.83C35.111,60.083,32.474,62.72,29.22,62.72z"/>
	<path style="fill:#FE7D43;" d="M482.761,62.72h20.14c0.872,0,1.58-0.707,1.58-1.58V9.08c0-0.872-0.707-1.58-1.58-1.58h-20.14&#10;&#9;&#9;c-3.253,0-5.89,2.637-5.89,5.89V56.83C476.871,60.083,479.508,62.72,482.761,62.72z"/>
	<polygon style="fill:#FEB237;" points="228.381,380.235 173.161,380.235 181.771,359.527 173.161,338.82 228.381,338.82 &#9;"/>
	<polygon style="fill:#FEB237;" points="283.601,380.235 338.821,380.235 330.211,359.527 338.821,338.82 283.601,338.82 &#9;"/>
	<rect x="200.771" y="311.21" style="fill:#FFC344;" width="110.44" height="41.415"/>
	<path style="fill:none;stroke:#000000;stroke-width:15;stroke-linecap:round;stroke-linejoin:round;stroke-miterlimit:10;" d="&#10;&#9;&#9;M435.461,192.068v229.017c0,0.41-0.24,0.78-0.61,0.95l-25.52,11.78c-0.69,0.32-1.48-0.19-1.48-0.95V380.55&#10;&#9;&#9;c0-0.74-0.767-1.23-1.439-0.92l-25.583,11.814c-0.359,0.166-0.589,0.525-0.589,0.92v54.211c0,0.41-0.24,0.78-0.61,0.95&#10;&#9;&#9;l-25.52,11.77c-0.69,0.32-1.49-0.18-1.49-0.95v-52.295c0-0.74-0.767-1.23-1.439-0.92l-25.573,11.804&#10;&#9;&#9;c-0.359,0.166-0.589,0.525-0.589,0.92v54.202c0,0.41-0.24,0.78-0.61,0.95l-25.52,11.78c-0.69,0.32-1.49-0.19-1.49-0.95v-52.305&#10;&#9;&#9;c0-0.74-0.767-1.23-1.439-0.92l-25.573,11.804c-0.359,0.166-0.589,0.525-0.589,0.92v54.211c0,0.41-0.24,0.78-0.61,0.95l-12.76,5.89&#10;&#9;&#9;c-0.279,0.129-0.601,0.129-0.88,0l-12.76-5.89c-0.37-0.17-0.6-0.54-0.6-0.95v-53.801c0-0.395-0.23-0.755-0.589-0.92l-25.583-11.804&#10;&#9;&#9;c-0.672-0.31-1.438,0.181-1.438,0.92v51.896c0,0.76-0.8,1.27-1.49,0.95l-25.52-11.78c-0.37-0.17-0.6-0.54-0.6-0.95v-53.792&#10;&#9;&#9;c0-0.395-0.23-0.755-0.589-0.92L160.8,405.529c-0.672-0.31-1.439,0.18-1.439,0.92v51.895c0,0.77-0.8,1.27-1.49,0.95l-25.52-11.77&#10;&#9;&#9;c-0.37-0.17-0.6-0.54-0.6-0.95v-53.801c0-0.395-0.23-0.755-0.589-0.92l-25.592-11.814c-0.672-0.31-1.439,0.181-1.439,0.92v51.906&#10;&#9;&#9;c0,0.76-0.79,1.27-1.48,0.95l-25.52-11.78c-0.37-0.17-0.6-0.54-0.6-0.95V62.72"/>
	
		<line style="fill:none;stroke:#000000;stroke-width:15;stroke-linecap:round;stroke-linejoin:round;stroke-miterlimit:10;" x1="435.461" y1="62.72" x2="435.461" y2="157.068"/>
	<path style="fill:none;stroke:#000000;stroke-width:15;stroke-linecap:round;stroke-linejoin:round;stroke-miterlimit:10;" d="&#10;&#9;&#9;M109.251,62.72H63.846c-0.621,0-1.125-0.504-1.125-1.125V8.625c0-0.621,0.504-1.125,1.125-1.125h384.29&#10;&#9;&#9;c0.621,0,1.125,0.504,1.125,1.125v52.97c0,0.621-0.504,1.125-1.125,1.125H144.251"/>
	<path style="fill:none;stroke:#000000;stroke-width:15;stroke-linecap:round;stroke-linejoin:round;stroke-miterlimit:10;" d="&#10;&#9;&#9;M29.22,62.72H9.08c-0.872,0-1.58-0.707-1.58-1.58V9.08c0-0.872,0.707-1.58,1.58-1.58h20.14c3.253,0,5.89,2.637,5.89,5.89V56.83&#10;&#9;&#9;C35.111,60.083,32.474,62.72,29.22,62.72z"/>
	<path style="fill:none;stroke:#000000;stroke-width:15;stroke-linecap:round;stroke-linejoin:round;stroke-miterlimit:10;" d="&#10;&#9;&#9;M482.761,62.72h20.14c0.872,0,1.58-0.707,1.58-1.58V9.08c0-0.872-0.707-1.58-1.58-1.58h-20.14c-3.253,0-5.89,2.637-5.89,5.89V56.83&#10;&#9;&#9;C476.871,60.083,479.508,62.72,482.761,62.72z"/>
	
		<line style="fill:none;stroke:#000000;stroke-width:15;stroke-linecap:round;stroke-linejoin:round;stroke-miterlimit:10;" x1="217.918" y1="146.693" x2="303.034" y2="231.809"/>
	<path style="fill:none;stroke:#000000;stroke-width:15;stroke-linecap:round;stroke-linejoin:round;stroke-miterlimit:10;" d="&#10;&#9;&#9;M342.471,234.931l-36.315,36.315c-7.6,7.6-19.922,7.6-27.522,0l-6.684-6.684c-0.461-0.461-0.461-1.208,0-1.668l62.169-62.169&#10;&#9;&#9;c0.461-0.461,1.208-0.461,1.668,0l6.684,6.684C350.071,215.009,350.071,227.331,342.471,234.931z"/>
	<path style="fill:none;stroke:#000000;stroke-width:15;stroke-linecap:round;stroke-linejoin:round;stroke-miterlimit:10;" d="&#10;&#9;&#9;M394.437,289.361l-33.851,33.851c-2.404,2.404-6.303,2.404-8.707,0l-8.727-8.727c-4.528-4.528-4.528-11.869,0-16.397l26.161-26.161&#10;&#9;&#9;c4.528-4.528,11.869-4.528,16.397,0l8.727,8.727C396.841,283.058,396.841,286.956,394.437,289.361z"/>
	<path style="fill:none;stroke:#000000;stroke-width:15;stroke-linecap:round;stroke-linejoin:round;stroke-miterlimit:10;" d="&#10;&#9;&#9;M205.826,271.246l-36.315-36.315c-7.6-7.6-7.6-19.922,0-27.522l6.684-6.684c0.461-0.461,1.208-0.461,1.668,0l62.169,62.169&#10;&#9;&#9;c0.461,0.461,0.461,1.208,0,1.668l-6.684,6.684C225.748,278.846,213.426,278.846,205.826,271.246z"/>
	<path style="fill:none;stroke:#000000;stroke-width:15;stroke-linecap:round;stroke-linejoin:round;stroke-miterlimit:10;" d="&#10;&#9;&#9;M125.332,297.147l-7.787-7.787c-2.404-2.404-2.404-6.303,0-8.707l8.727-8.727c4.528-4.528,11.869-4.528,16.397,0l26.161,26.161&#10;&#9;&#9;c4.528,4.528,4.528,11.869,0,16.397l-8.727,8.727c-2.404,2.404-6.303,2.404-8.707,0l-0.375-0.375"/>
	
		<line style="fill:none;stroke:#000000;stroke-width:15;stroke-linecap:round;stroke-linejoin:round;stroke-miterlimit:10;" x1="228.939" y1="211.818" x2="208.947" y2="231.809"/>
	
		<line style="fill:none;stroke:#000000;stroke-width:15;stroke-linecap:round;stroke-linejoin:round;stroke-miterlimit:10;" x1="294.064" y1="146.693" x2="283.457" y2="157.299"/>
	
		<rect x="200.771" y="311.21" style="fill:none;stroke:#000000;stroke-width:15;stroke-linecap:round;stroke-linejoin:round;stroke-miterlimit:10;" width="110.44" height="41.415"/>
	
		<polygon style="fill:none;stroke:#000000;stroke-width:15;stroke-linecap:round;stroke-linejoin:round;stroke-miterlimit:10;" points="&#10;&#9;&#9;272.785,104.135 255.991,124.661 309.55,190.122 336.622,167.972 336.622,104.135 &#9;"/>
	
		<polygon style="fill:none;stroke:#000000;stroke-width:15;stroke-linecap:round;stroke-linejoin:round;stroke-miterlimit:10;" points="&#10;&#9;&#9;231.29,254.153 255.991,233.943 202.432,190.122 186.604,209.467 &#9;"/>
	
		<rect x="149.139" y="254.001" transform="matrix(0.7071 -0.7071 0.7071 0.7071 -139.9531 200.2188)" style="fill:none;stroke:#000000;stroke-width:15;stroke-linecap:round;stroke-linejoin:round;stroke-miterlimit:10;" width="45.14" height="30.093"/>
	
		<polygon style="fill:none;stroke:#000000;stroke-width:15;stroke-linecap:round;stroke-linejoin:round;stroke-miterlimit:10;" points="&#10;&#9;&#9;325.377,209.467 239.197,104.135 175.36,104.135 175.36,167.972 280.691,254.153 &#9;"/>
	
		<rect x="325.226" y="246.478" transform="matrix(0.7071 -0.7071 0.7071 0.7071 -90.5817 319.4131)" style="fill:none;stroke:#000000;stroke-width:15;stroke-linecap:round;stroke-linejoin:round;stroke-miterlimit:10;" width="30.093" height="45.14"/>
	
		<polygon style="fill:none;stroke:#000000;stroke-width:15;stroke-linecap:round;stroke-linejoin:round;stroke-miterlimit:10;" points="&#10;&#9;&#9;338.821,338.82 311.211,338.82 311.211,352.625 283.601,352.625 283.601,380.235 338.821,380.235 330.211,359.528 &#9;"/>
	
		<polygon style="fill:none;stroke:#000000;stroke-width:15;stroke-linecap:round;stroke-linejoin:round;stroke-miterlimit:10;" points="&#10;&#9;&#9;200.771,352.625 200.771,338.82 173.161,338.82 181.771,359.528 173.161,380.235 228.381,380.235 228.381,352.625 &#9;"/>
	
		<line style="fill:none;stroke:#000000;stroke-width:15;stroke-linecap:round;stroke-linejoin:round;stroke-miterlimit:10;" x1="35.111" y1="48.915" x2="62.721" y2="48.915"/>
	
		<line style="fill:none;stroke:#000000;stroke-width:15;stroke-linecap:round;stroke-linejoin:round;stroke-miterlimit:10;" x1="62.721" y1="21.305" x2="35.111" y2="21.305"/>
	
		<line style="fill:none;stroke:#000000;stroke-width:15;stroke-linecap:round;stroke-linejoin:round;stroke-miterlimit:10;" x1="449.261" y1="48.915" x2="476.871" y2="48.915"/>
	
		<line style="fill:none;stroke:#000000;stroke-width:15;stroke-linecap:round;stroke-linejoin:round;stroke-miterlimit:10;" x1="476.871" y1="21.305" x2="449.261" y2="21.305"/>
</g>















</svg>
