<svg id="icon" height="512" viewBox="0 0 340 340" width="512" xmlns="http://www.w3.org/2000/svg"><path d="m307.076 149.789-8.674-20.649h-17.182v27.59z" fill="#bc524c"/><path d="m284.252 116.665-10.181-24.239h-41.371v31.533z" fill="#fc877b"/><path d="m307.076 188.89-25.856 26.448v-65.549h25.856z" fill="#ce917e"/><path d="m284.252 177.92c-14.722 2.018-32.444 1.577-51.552 0v-61.255h51.552z" fill="#ffe9d3"/><path d="m232.7 177.92h51.553v37.418h-51.553z" fill="#ce917e"/><path d="m197.064 58.9 20.159-40.468 20.158 40.468a110.96 110.96 0 0 1 -40.317 0z" fill="#fc877b"/><path d="m237.381 106.527-40.317 4.148v-51.778h40.317z" fill="#ffe9d3"/><path d="m156.748 122.947h21.826a5.424 5.424 0 0 0 4.67-2.665l6.556-11.091a5.425 5.425 0 0 1 4.67-2.664h42.911v125.756h-80.633z" fill="#ce917e"/><path d="m93.832 106.527 65.529 6.139 4.021-6.139v-25.192h-53.102z" fill="#fc877b"/><path d="m93.832 128.302v-21.775h69.55v42.227l-71.338 7.976z" fill="#ffe9d3"/><path d="m90.389 148.754-2.371 14.084h75.364v-14.084z" fill="#ce917e"/><path d="m75.375 175.346-12.957 10.954a21.109 21.109 0 0 0 -7.4 14.217l-.182 2.01a21.1 21.1 0 0 1 -7.6 14.388l-12.457 10.253a19.639 19.639 0 0 0 -7 12.711l-4.745 37.777h56.08z" fill="#8b86a8"/><path d="m93.832 158.155v-29.853h-21.933v136.832h109.358l10.118-106.979z" fill="#ffe9d3"/><path d="m187.757 189.619c-32.783-7.055-54.556 25.169-54.556 25.169s-3.227-8.5-12.022-8.5h-14.308l-21.684 25.995a21.969 21.969 0 0 1 -8.544 7.483l-4.744 2.3v23.066h109.358z" fill="#ce917e"/><path d="m104.714 180.4a10.882 10.882 0 0 1 10.886 10.881v50.93a0 0 0 0 1 0 0h-21.768a0 0 0 0 1 0 0v-50.93a10.882 10.882 0 0 1 10.882-10.881z" fill="#3c3c4f"/><path d="m148.479 180.4a10.882 10.882 0 0 1 10.882 10.882v50.93a0 0 0 0 1 0 0h-21.761a0 0 0 0 1 0 0v-50.93a10.882 10.882 0 0 1 10.879-10.882z" fill="#3c3c4f"/><path d="m330.034 229.346-59.072-2.997v81.515h52.57l6.502-23.808z" fill="#ffe9d3"/><path d="m330.034 229.346-22.958-40.456h-55.964l16.319 40.456z" fill="#fc877b"/><path d="m220.154 229.346c16.845-4.1 36.174-3.891 53.917 0v68.322h-53.917c-2.516-23.52-2.878-46.402 0-68.322z" fill="#ce917e"/><path d="m220.154 229.346h53.917l-22.959-40.456z" fill="#bc524c"/><path d="m130.053 251.929s-5.253-27.571 21.782-31.629c0 0 7.611-18.757 32.018-15.345v106.286h-49.864z" fill="#9db065"/><path d="m270.962 275.48v32.384h52.57l6.502-19.423v-12.961z" fill="#ce917e"/><path d="m177.531 177.92a89.512 89.512 0 0 1 42.623 0v73.83a90.819 90.819 0 0 1 -42.623 0z" fill="#ffe9d3"/><path d="m71.9 256.615a20.475 20.475 0 0 1 4.786-3.13l3.738-1.756a20.553 20.553 0 0 0 7.866-6.506 198.545 198.545 0 0 1 17.881-21.415 11.749 11.749 0 0 1 8.363-3.511h4.325a10.383 10.383 0 0 1 9.788 6.919l5.353 15.137a17.2 17.2 0 0 0 7.021 8.8l3.7 2.342a17.2 17.2 0 0 1 7.688 11.241l1.26 6.453-4.647 38.111-84.777 6.74z" fill="#b9b4d3"/><path d="m153.676 271.187-4.149 2.637a11.392 11.392 0 0 0 -5.283 9.615v5.081a4.512 4.512 0 0 1 -4.511 4.512h-21.133s-2.168 13.952-1.887 23.008h45.729z" fill="#8b86a8"/><path d="m198.843 135.54-21.312 42.38h42.623z" fill="#fc877b"/><path d="m198.843 201.27a7.468 7.468 0 0 1 7.468 7.468v12.6a0 0 0 0 1 0 0h-14.936a0 0 0 0 1 0 0v-12.6a7.468 7.468 0 0 1 7.468-7.468z" fill="#3c3c4f"/><path d="m294.697 246.245h14.56v21.923h-14.56z" fill="#3c3c4f"/><path d="m107.915 120.901h13.264v18h-13.264z" fill="#3c3c4f"/><path d="m136.035 120.901h13.264v18h-13.264z" fill="#3c3c4f"/><path d="m210.861 73.568h12.723v18h-12.723z" fill="#3c3c4f"/><path d="m113.4 316.04 1.151-1.22s-6.662-16.627-13.268-30.764c-3.955-8.465-10.206-10.666-14.585-11.069a7.365 7.365 0 0 1 -6.232-4.822 27.859 27.859 0 0 0 -8.566-11.543 20.468 20.468 0 0 0 -5.688 8.207l-8.093 21.582 6.122 29.629z" fill="#8b86a8"/><path d="m253.655 140.946h15.388v21.977h-15.388z" fill="#3c3c4f"/><path d="m177.531 300.601h20.762l21.861-35.467v-13.384h-42.623v32.306z" fill="#ce917e"/><path d="m177.531 284.056h-25.417v16.544h-25.414v-16.544h-25.421c1.741 24.647 13.161 35.019 30.358 36.874h69.2v-20.33h-23.31z" fill="#ffe9d3"/><path d="m240.667 265.134v14.4h-20.681v-14.4h-20.686v55.8h20.85a58.71 58.71 0 0 1 20.345 0h20.85v-55.8z" fill="#ffe9d3"/><path d="m230.326 297.668a10.172 10.172 0 0 1 10.174 10.173v13.089a0 0 0 0 1 0 0h-20.346a0 0 0 0 1 0 0v-13.089a10.172 10.172 0 0 1 10.172-10.173z" fill="#3c3c4f"/><circle cx="119.939" cy="261.448" fill="#8b86a8" r="3.559"/><circle cx="134.037" cy="260.259" fill="#8b86a8" r="3.559"/><circle cx="133.201" cy="273.622" fill="#8b86a8" r="3.559"/><path d="m101.279 284.056v36.874h47.882c-38.802-6.73-47.882-36.874-47.882-36.874z" fill="#ce917e"/><path d="m39.244 320.93h83.464a40.988 40.988 0 0 1 -27.746-24.43c-8.194-20.484-21.229-16.387-21.229-16.387s-1.3-21.229-28.492-12.477c0 0-17.9-4.856-20.055 24.22s14.058 29.074 14.058 29.074z" fill="#c6db8f"/><path d="m304.617 284.056v16.544h-25.937l-.128-16.545h-24.769v36.875l24.261-.08c.385.028.771.051 1.156.08h50.834v-36.874z" fill="#ffe9d3"/><path d="m45.241 267.634s-12.477-10.8-25.14-.186c-8.638 7.241-6.357 16.388-4.035 21.471a6.706 6.706 0 0 1 -.772 6.878c-2.388 3.083-5.356 8.638-5.323 17.193a8.02 8.02 0 0 0 8.042 7.94h21.231c-13.1-6.741-10.157-17.322-7.152-23.139a13 13 0 0 0 1.22-8.864c-4.199-18.247 11.929-21.293 11.929-21.293z" fill="#9db065"/><g fill="#3c3c4f"><path d="m198.843 197.769a10.981 10.981 0 0 0 -10.969 10.968v12.6a3.5 3.5 0 0 0 3.5 3.5h14.937a3.5 3.5 0 0 0 3.5-3.5v-12.6a10.98 10.98 0 0 0 -10.968-10.968zm3.968 20.071h-7.937v-9.1a3.969 3.969 0 0 1 7.937 0z"/><path d="m294.7 271.669h14.56a3.5 3.5 0 0 0 3.5-3.5v-21.924a3.5 3.5 0 0 0 -3.5-3.5h-14.56a3.5 3.5 0 0 0 -3.5 3.5v21.924a3.5 3.5 0 0 0 3.5 3.5zm3.5-21.924h7.56v14.924h-7.56z"/><path d="m121.179 119.447h-13.264a3.5 3.5 0 0 0 -3.5 3.5v18a3.5 3.5 0 0 0 3.5 3.5h13.264a3.5 3.5 0 0 0 3.5-3.5v-18a3.5 3.5 0 0 0 -3.5-3.5zm-3.5 18h-6.264v-11h6.264z"/><path d="m149.3 119.447h-13.266a3.5 3.5 0 0 0 -3.5 3.5v18a3.5 3.5 0 0 0 3.5 3.5h13.266a3.5 3.5 0 0 0 3.5-3.5v-18a3.5 3.5 0 0 0 -3.5-3.5zm-3.5 18h-6.265v-11h6.265z"/><path d="m223.584 70.068h-12.722a3.5 3.5 0 0 0 -3.5 3.5v18a3.5 3.5 0 0 0 3.5 3.5h12.722a3.5 3.5 0 0 0 3.5-3.5v-18a3.5 3.5 0 0 0 -3.5-3.5zm-3.5 18h-5.722v-11h5.722z"/><path d="m253.655 166.424h15.387a3.5 3.5 0 0 0 3.5-3.5v-21.978a3.5 3.5 0 0 0 -3.5-3.5h-15.387a3.5 3.5 0 0 0 -3.5 3.5v21.978a3.5 3.5 0 0 0 3.5 3.5zm3.5-21.978h8.387v14.978h-8.387z"/><path d="m193.932 57.336a3.792 3.792 0 0 0 -.367 1.56v44.13c-1.837-.053-4.206-.192-5.2 1.719l-8.69 14.7h-12.79v-38.11a3.5 3.5 0 0 0 -3.5-3.5h-53.1a3.5 3.5 0 0 0 -2.931 1.587l-16.454 25.191a3.818 3.818 0 0 0 -.57 1.913v18.274h-18.43a3.5 3.5 0 0 0 -3.5 3.5v48.357c-26.474 19.7-9.56 23.928-23.389 37.549l-12.458 10.261a23.048 23.048 0 0 0 -8.248 14.976l-2.779 22.129a3.486 3.486 0 0 0 -.016.628c-13.259 7.439-12.775 21.52-7.765 30.006-3.606 3.961-9.535 13.247-6.39 29.392a3.5 3.5 0 0 0 3.435 2.832h319.244a3.5 3.5 0 0 0 3.5-3.5v-91.584a3.569 3.569 0 0 0 -.315-1.436c-.092-.288-22.5-39.652-22.643-39.943v-38.162a3.52 3.52 0 0 0 -.28-1.388l-8.667-20.632a3.5 3.5 0 0 0 -3.226-2.145h-10.651v-8.959a3.52 3.52 0 0 0 -.28-1.388l-10.172-24.223a3.5 3.5 0 0 0 -3.226-2.144h-33.19v-30.026c-.014-.16-.022-.32-.048-.481a3.943 3.943 0 0 0 -.319-1.079s-18.595-37.328-19.381-38.907c-2.087-3.743-6.067-3.88-7.82 0zm-27.05 69.111h14.787a3.5 3.5 0 0 0 3.013-1.719l8.689-14.7h40.51v95.623l-10.226 13.364v-41.095a3.946 3.946 0 0 0 -.373-1.572l-21.312-42.379a3.524 3.524 0 0 0 -6.254 0l-10.4 20.685h-18.434zm46.918 46.632a92.911 92.911 0 0 0 -29.921 0l14.961-29.749zm-101.626-88.244h47.708v18.191h-59.582zm-14.842 25.191h62.55v44.628h-62.55zm-21.932 21.774h14.932v26.352a3.5 3.5 0 0 0 3.5 3.5h87.961c-.033.095-7.418 14.7-7.422 14.787a3.593 3.593 0 0 0 -.34 1.479v23.329a32.781 32.781 0 0 0 -11.169 3.145v-13.111c-.79-19.08-27.979-19.076-28.766 0v33.675a24.885 24.885 0 0 0 -1.811 2.053 14.051 14.051 0 0 0 -12.406-10.172v-25.556c-.789-19.079-27.976-19.077-28.764 0v44.445c-4.584 5.387-6.237 10-12.181 12.835l-3.534 1.661zm76.955 91.956a3.534 3.534 0 0 0 2.717-2.128 23.941 23.941 0 0 1 18.959-13.328v72.26h-14.958l-3.221-16.494a20.783 20.783 0 0 0 -9.253-13.527c-8.04-4.635-8.436-6.58-11.311-15.042 2.882-6.518 8.612-10.47 17.067-11.739zm-11.255-3.825v-28.65c.345-9.769 14.42-9.77 14.766 0v17.864a31.292 31.292 0 0 0 -6.373 8.006 33.208 33.208 0 0 0 -8.393 2.78zm-28.217-28.65v25.619c-6.505.478-10.739 5.94-14.764 10.436v-36.05c.34-9.773 14.414-9.777 14.76-.005zm-34.711 65.372c4.925-2.083 9.846-4.863 12.944-9.368a196.786 196.786 0 0 1 17.545-21.02 8.306 8.306 0 0 1 5.871-2.468c4.458-.1 8.928-.419 10.814 4.587l5.354 15.136c1.946 5.992 6.853 9.941 12.154 12.931a13.755 13.755 0 0 1 6.123 8.953l2.962 15.169a3.491 3.491 0 0 0 -3.329 3.483v13.044h-18.41v-13.044a3.5 3.5 0 0 0 -3.5-3.5h-25.42a3.5 3.5 0 0 0 -3.5 3.5v10.107c-6.478-15.271-15.95-17.757-21.211-17.822a19.467 19.467 0 0 0 -6.964-10.541 16.877 16.877 0 0 1 8.567-9.147zm-46.922-16.337a16.081 16.081 0 0 1 5.75-10.446c9.04-7.947 20.264-13.538 21.32-27.032a18.342 18.342 0 0 1 6.353-13.869l3.724-3.147v69.3a23.849 23.849 0 0 0 -5.111 7.663c-4.816-1.283-10.615-.963-17.339.973a23.943 23.943 0 0 0 -17.116-4.2zm-17.481 77.114c-1.943-15.332 6.16-21.551 6.5-21.8a3.529 3.529 0 0 0 .8-4.914c-11.938-16.8 8.215-31.66 21.882-20.432a3.512 3.512 0 0 0 3.364.686c8.3-2.672 14.594-2.615 18.725.168 4.7 3.165 5.2 9.152 5.2 9.191a3.488 3.488 0 0 0 4.491 3.14c.418-.118 10.2-2.632 16.98 14.332a43.663 43.663 0 0 0 15.348 19.632zm182.035 0h-72.704a37.36 37.36 0 0 1 -18.32-11.44v-18.434h18.42v13.044a3.5 3.5 0 0 0 3.5 3.5h25.417a3.5 3.5 0 0 0 3.5-3.5v-13.044h18.417v13.044a3.5 3.5 0 0 0 3.5 3.5h18.266zm0-52.3v31.97h-14.773v-115.68h35.624v80.214h-17.355a3.5 3.5 0 0 0 -3.5 3.5zm41.196 52.3h-13.345v-9.589a6.672 6.672 0 1 1 13.343 0zm20.851 0h-13.851v-9.589a13.672 13.672 0 1 0 -27.343 0v9.589h-13.857v-48.8h13.851v10.9a3.5 3.5 0 0 0 3.5 3.5h20.512a3.5 3.5 0 0 0 3.5-3.5v-10.9h13.682zm3.5-55.8h-20.684a3.5 3.5 0 0 0 -3.5 3.5v10.9h-13.512v-43.184h46.916v47.71h-5.722v-15.422a3.5 3.5 0 0 0 -3.5-3.5zm65.185 55.8h-61.687v-29.874h10.851v13.044a3.5 3.5 0 0 0 3.5 3.5h25.417a3.5 3.5 0 0 0 3.5-3.5v-13.044h18.417zm0-36.874h-21.919a3.5 3.5 0 0 0 -3.5 3.5v13.044h-18.417v-13.044a3.5 3.5 0 0 0 -3.5-3.5h-1.629v-47.71h48.963zm-38.784-147.916h8.324l5.734 13.649h-14.058zm0 20.649h15.824v32.1h-15.824zm17.286 39.1 18.986 33.456h-47.915l-18.986-33.455zm-64.157-96.463h30.863l7.242 17.239h-38.1zm0 24.239h39.871v65.225h-29.639a3.435 3.435 0 0 0 -1.575.391c-.809-.075-8.016 10.078-8.657 10.721zm9.8 75.052 17.382 30.629h-40.823zm-16.8-92.191h-33.316v-40.626h33.316zm-31.163-47.626 14.505-29.117 14.5 29.117z"/></g></svg>