<svg id="icons" height="512" viewBox="0 0 500 500" width="512" xmlns="http://www.w3.org/2000/svg" xmlns:xlink="http://www.w3.org/1999/xlink"><linearGradient id="linear-gradient" gradientUnits="userSpaceOnUse" x1="97.566" x2="123.189" y1="301.004" y2="434.975"><stop offset="0" stop-color="#6b6687"/><stop offset="1" stop-color="#4e4963"/></linearGradient><linearGradient id="linear-gradient-2" gradientUnits="userSpaceOnUse" x1="190.71" x2="299.513" y1="221.036" y2="400.333"><stop offset="0" stop-color="#d19798"/><stop offset="1" stop-color="#bc7983"/></linearGradient><linearGradient id="linear-gradient-3" gradientUnits="userSpaceOnUse" x1="136.133" x2="414.529" y1="117.381" y2="491.321"><stop offset="0" stop-color="#ab646e"/><stop offset=".996" stop-color="#782f3e"/></linearGradient><linearGradient id="linear-gradient-4" gradientUnits="userSpaceOnUse" x1="344.006" x2="89.855" y1="33.142" y2="44.624"><stop offset="0" stop-color="#97a0ce"/><stop offset="1" stop-color="#797cb4"/></linearGradient><linearGradient id="linear-gradient-5" gradientUnits="userSpaceOnUse" x1="103.751" x2="249.964" y1="75.005" y2="44.385"><stop offset="0" stop-color="#c7d3f9"/><stop offset="1" stop-color="#e7efff"/></linearGradient><linearGradient id="linear-gradient-6" gradientUnits="userSpaceOnUse" x1="243.838" x2="253.528" y1="108.1" y2="191.43"><stop offset="0" stop-color="#a7b8e3"/><stop offset="1" stop-color="#8d9cc9"/></linearGradient><linearGradient id="linear-gradient-7" gradientUnits="userSpaceOnUse" x1="255.083" x2="255.083" y1="151.786" y2="77.276"><stop offset="0" stop-color="#ffd3d1"/><stop offset="1" stop-color="#f59f9b"/></linearGradient><linearGradient id="linear-gradient-8" gradientUnits="userSpaceOnUse" x1="233.707" x2="281.012" y1="168.55" y2="298.103"><stop offset="0" stop-color="#f3fbff"/><stop offset="1" stop-color="#cfdbf1"/></linearGradient><linearGradient id="linear-gradient-9" gradientUnits="userSpaceOnUse" x1="366.706" x2="441.713" y1="120.859" y2="165.491"><stop offset="0" stop-color="#ffca8c"/><stop offset="1" stop-color="#ff9668"/></linearGradient><linearGradient id="linear-gradient-10" x1="399.113" x2="399.113" xlink:href="#linear-gradient-7" y1="136.424" y2="87.355"/><linearGradient id="linear-gradient-11" gradientUnits="userSpaceOnUse" x1="422.534" x2="377.058" y1="288.536" y2="168.836"><stop offset="0" stop-color="#aed8ff"/><stop offset="1" stop-color="#e3ffff"/></linearGradient><linearGradient id="linear-gradient-12" gradientUnits="userSpaceOnUse" x1="382.779" x2="396.243" y1="241.704" y2="285.464"><stop offset="0" stop-color="#ffb0b0"/><stop offset="1" stop-color="#ff8e93"/></linearGradient><linearGradient id="linear-gradient-13" x1="392.348" x2="398.993" xlink:href="#linear-gradient-12" y1="161.313" y2="187.42"/><linearGradient id="linear-gradient-14" x1="61.757" x2="98.581" xlink:href="#linear-gradient-7" y1="278.739" y2="278.739"/><linearGradient id="linear-gradient-15" gradientUnits="userSpaceOnUse" x1="131.662" x2="54.175" y1="491.528" y2="127.484"><stop offset="0" stop-color="#6b1c39"/><stop offset="1" stop-color="#a94d71"/></linearGradient><linearGradient id="linear-gradient-16" x1="64.794" x2="105.027" xlink:href="#linear-gradient-7" y1="165.821" y2="165.821"/><linearGradient id="linear-gradient-17" x1="223.216" x2="286.389" xlink:href="#linear-gradient-6" y1="183.337" y2="321.951"/><linearGradient id="linear-gradient-18" gradientUnits="userSpaceOnUse" x1="350.627" x2="350.627" y1="291.151" y2="124.067"><stop offset="0" stop-color="#979eff"/><stop offset="1" stop-color="#c4d1ff"/></linearGradient><linearGradient id="linear-gradient-19" x1="442.521" x2="442.521" xlink:href="#linear-gradient-18" y1="291.151" y2="124.067"/><linearGradient id="linear-gradient-20" x1="444.766" x2="340.942" xlink:href="#linear-gradient-9" y1="277.283" y2="319.4"/><path d="m60.443 297.625c-16.822 93.875 50.983 129.065 91.857 183.866l8.545-94.733-48.357-134.046z" fill="url(#linear-gradient)"/><path d="m94.913 238.13s29.492 58.088 46.706 138.931l29.214 20.021s31.423 46.656 96.577 68.552a427.516 427.516 0 0 0 50.192-.9l76.039-87.577-29.273-106.871-77.2-93.761-77.436 9.051s-19.76-7.259-41.656 35.464c0 0-16.021-2.67-22.964 17.09 0 0-15.749-9.079-42.855-6.409z" fill="url(#linear-gradient-2)"/><path d="m438.031 372.258c-5.826-23.764-22.395-70.126-67.016-103.688l22.964-52.87v-89.72l-51.41 9.608c-14.7 41.8-53.037 40.771-106.7 46.933-15.629 18.767-22.057 30.257-24.392 46.092 0 0-18.209 10.345-2.728 64.91 0 0 8.133 47.741 37.539 39.194 0 0 1.92 10.754 21.893 13.059 0 0 15.174 18.234 34.281 13.534a322.039 322.039 0 0 0 31.638 48.363c14.365 18.833-6.047 36.545-28.723 33.511-78.128-10.456-119.294-58.58-119.294-58.58a140.648 140.648 0 0 1 -27.272-31.156 3.819 3.819 0 0 0 -7.027 1.938c-.429 14.161-5.439 20.68-10.169 23.676 6.635 31.16 11.449 65.7 12.043 101.6 0 0 26.7-.741 18.691-75.508 0 0 59.249 72.687 145.261 67.29 0 0 38.387 39.75 109.368 13.392a3.111 3.111 0 0 0 .573-5.567c-4.8-2.954-11.1-7.259-15.419-11.79-5.28-5.539-7.594-11.417-.539-15.584a3.629 3.629 0 0 0 .319-6c-10.932-8.368-33.368-30.665-14.195-62.04 14.181-23.2 27-16.651 34.936-7.806a3.118 3.118 0 0 0 5.378-2.791z" fill="url(#linear-gradient-3)"/><path d="m73.184 32.407c-7.6 11.576-11.225 25.732-9.96 43.07 0 0 123.584-46.662 247.162-28.758 19.409 2.812 40.346 1.985 62.2 4.749 0 0-131.568-78.106-299.402-19.061z" fill="url(#linear-gradient-4)"/><path d="m310.386 46.721c-121.259-34.647-219.296 12.916-247.156 28.756a108.425 108.425 0 0 0 4.27 29.923s84.4-62.59 242.886-58.679z" fill="url(#linear-gradient-5)"/><path d="m220.979 122.222a43.647 43.647 0 0 1 -15.479 20.048c-12.456 9.831-13.987 25.93 4.54 36.63l77.971 6.676s5.077-.564 10.1-7.486c9.374-12.922 6.706-26.888-5.364-37.337-2.992-2.59-6.231-9.3-10.874-11.519z" fill="url(#linear-gradient-6)"/><path d="m218.039 170.646c.186-14.527-8.822-77 40.082-78.764 25.556.337 36.2 20.835 34.34 41.023-1.176 10.221-4.139 28.338-11.074 39.7z" fill="url(#linear-gradient-7)"/><path d="m253.792 157.723a16.029 16.029 0 0 1 -11.038-.283c-8.022-3.113-23.132-5.26-34.525 15.168-4.893 8.774-4.789 15.417-3.413 24.865.038 65.031 15.94 103.309 55.8 101.183l34.08-30.742c7.551-15.842-.215-31.973-11.053-48.161 1.037-13.586 5.979-20.828 5.979-20.828 2.763-6.494 7.965-24.074-9.077-37.528.001.003-12.39-8.63-26.753-3.674z" fill="url(#linear-gradient-8)"/><path d="m450.58 148.035h-108.011v-12.447a11.181 11.181 0 0 1 11.181-11.181h85.65a11.181 11.181 0 0 1 11.181 11.181z" fill="url(#linear-gradient-9)"/><path d="m386.877 98.475a30.944 30.944 0 0 1 3.033 1.338s8.264-6.3 17.14 1.145c5.9-6.291 17.895-4.21 18.366 5.78v16.3s.517 3.408-23.986 5.677-28.62-8.45-28.62-8.45l.39-13.265c.164-6.509 7.217-10.954 13.677-8.525z" fill="url(#linear-gradient-10)"/><path d="m410.425 209.891c12.443-9.433 19.915-25.7 19.845-42.435v-19.421h-69.495v19.383c-.071 16.75 7.431 33.038 19.889 42.472a8.576 8.576 0 0 1 .08 13.255c-12.181 9.237-20.147 25.67-19.969 42.524v21.174h69.5v-21.216c.178-16.831-7.762-33.253-19.925-42.483a8.577 8.577 0 0 1 .075-13.253z" fill="url(#linear-gradient-11)"/><path d="m388.784 245.857c-20.986 11.316-28.012 40.986-28.012 40.986h71.528c.792-2.111-18.611-53.427-43.516-40.986z" fill="url(#linear-gradient-12)"/><path d="m390.651 195.923c-7.473-4.3-11.642-12.192-13.582-16.944a2.887 2.887 0 0 1 2.777-3.933h33.454a2.888 2.888 0 0 1 2.778 3.933c-1.941 4.752-6.109 12.645-13.582 16.944a11.941 11.941 0 0 1 -11.845 0z" fill="url(#linear-gradient-13)"/><path d="m66.46 228.433c-.39 18.286-1.62 41.165-4.658 66.359 0 0-2.67 32.524 33.111 41.068 0 0 2.992-22.877 3.668-53.019-3.668-52.541-17.881-73.193-32.121-54.408z" fill="url(#linear-gradient-14)"/><path d="m65.806 184.807s1.224 16.911.654 43.626c10.872 7.662 28.859 26.3 32.126 54.162.661-30.1-1-67.382-10.238-96.362z" fill="#e07a86"/><path d="m51.162 52.5c-3.043 18.769-5.025 58.956 20.162 104.965 0 0 26.965 83.684 20.921 150.167s-18.345 126.414-1.14 171.026h19.586s-15.7-35.427.32-149.3a288.611 288.611 0 0 0 1.613-66.873c-2.83-30.482-10.048-72.794-27.817-117.1 0 0-26.965-52.536-11.623-112.974-10.244 4.589-19.813 7.436-22.022 20.089z" fill="url(#linear-gradient-15)"/><path d="m88.348 142.253 8.164-5.121a9.69 9.69 0 0 1 13.964 4.186l4.356 9.547a14.8 14.8 0 0 1 -4.544 17.955l-10.31 7.788z" fill="#e07a86"/><path d="m64.794 158.23a69.152 69.152 0 0 1 23.554-16.06 6.856 6.856 0 0 1 9.483 6.074 72.954 72.954 0 0 1 -.507 8.221c7.2 2.1 9.989 9.238 5.608 16.618 0 0-1.985 21.855-24.352 15.886-10.974-2.929-13.786-30.739-13.786-30.739z" fill="url(#linear-gradient-16)"/><path d="m108.585 180.4a20.555 20.555 0 0 0 -5.653-7.312l-8.232 6.54c-23.017 5.953-29.9-21.392-29.9-21.392-12.616 13.015-12.046 21.708-2.217 24.371-6.531 12.554 5.94 16.118 5.94 16.118-3.814 8.256 4.449 16.414 12.178 10.933 8-6.3 18.293-13.413 24.243-17.438a9.759 9.759 0 0 0 3.641-11.82z" fill="#e07a86"/><path d="m418.817 135.483a7.69 7.69 0 0 0 6.6-7.509v-4.938c-10.521 6.583-18.366-.814-18.366-.814-9.67 6.566-17.159 0-17.159 0-9.569 4.736-14.8.821-17.081-1.959l-.222 7.524c-.116 8.8 12.412 9.65 17.3 4.994 6.59 4.125 10.3 3.506 17.159 0 4.192 2.401 8.107 3.262 11.769 2.702z" fill="#e07a86"/><path d="m296.681 316.542c-6.506-7.327-9.781-17.076-8.073-26.725a50.222 50.222 0 0 1 7.074-17.983s17.876-21.878-4.42-50.8a17.925 17.925 0 0 1 -3.641-9.5l.015-.006a24.479 24.479 0 0 1 -.014-4.727v-.036a26.329 26.329 0 0 1 1.92-7.639c-1.539 2.419-4.525 5.09-11.917 2.734-2.847-.907-4.917-3.441-6.138-6.169-3.766-8.418-13.407-13.351-13.407-13.351-13-6.592-27.464-3.232-35.026 12.378-6.6 14.806-16.413 12.224-18.242 2.755a22.086 22.086 0 0 0 -2.674 2.494c-11.215 10.741-7.9 32.673 3.564 36.27-7.41 9.332-12.7 32.173 12.805 48.533a15.525 15.525 0 0 1 6.811 11.785c.735 11.844 5.22 32.66 28.315 24.893 0 0 .45 10.573 16.463 14.186a24.127 24.127 0 0 1 10.534 5.158c4.931 4.263 13.095 9.528 18.972 4.2 7.304-6.615 5.322-19.17-2.921-28.45zm-71.54-43.715c-20.443-24.92-5.192-36.474-12.014-42.446a13.88 13.88 0 0 1 -4.037-6.411 7.928 7.928 0 0 1 6.414-10.152c7.023-1 12.953-7.446 14.408-12.006 2.745-8.6 20.405-22.371 34.033-.5 12.24 19.642 11.667 17.266 18.163 24.454 11.113 12.294 6.87 36.268-1.641 48.767s-36.648 20.518-55.326-1.706z" fill="url(#linear-gradient-17)"/><path d="m342.569 148.035h16.117v140.984h-16.117z" fill="url(#linear-gradient-18)"/><path d="m434.463 148.035h16.117v139.882h-16.117z" fill="url(#linear-gradient-19)"/><path d="m450.58 286.843h-108.011v12.446a11.181 11.181 0 0 0 11.181 11.181h85.65a11.181 11.181 0 0 0 11.181-11.181z" fill="url(#linear-gradient-20)"/><g fill="#2b2a3a"><path d="m454.33 135.588a14.948 14.948 0 0 0 -14.93-14.931h-10.234v-13.919c.038-11.128-13.568-16.9-22.213-10.471a17.333 17.333 0 0 0 -17.284-.706c-8.417-4.507-20.208 1.562-20.217 11.328l-.406 13.768h-15.3a14.937 14.937 0 0 0 -14.9 14.29c-.856 2.872-7.653 22.972-31.992 32.905 2.237-10.453-1.637-21.065-11.3-29.612 9.018-60.932-66.566-66.04-78.109-17.24a40.531 40.531 0 0 1 -14.154 18.24c-12.261 9.258-16.03 25.982-1.422 38.547a33.037 33.037 0 0 0 -1.068 4.253c-8.869 2.147-21.655 10.164-34.911 35.09-6.609.015-16.822 3.361-22.753 15.937-5.36-2.213-16.139-5.626-31.393-5.576q-2.712-15.63-6.534-30.924c8.6-4.634 10.33-15.075 4.008-22.32 8.992-5.71 13.459-14.772 9.026-25.019l-4.357-9.547a13.524 13.524 0 0 0 -19.368-5.806l-7.928 4.973c-.182.077-.359.157-.54.235a178.37 178.37 0 0 1 -10.424-34.587c19.673-12.316 101.073-57.326 234.619-54.026 23.949 2.066 38.571 1.832 61.869 4.718a3.75 3.75 0 0 0 2.385-6.945c-64.881-36.524-189.023-61.538-302.559-19.372-11.79 5.129-21.859 8.623-24.481 23.029-3.068 18.927-4.811 57.006 17.29 101.071-12.623 12.236-18.842 24.146-7.1 31.738a13.168 13.168 0 0 0 5.05 15.25 678.672 678.672 0 0 1 -4.6 94.231c-.881 4.248-11.6 60.024 21.288 105.768-1.764 29.382-.654 55.753 7.734 78.7h7.978c-17.843-43.123-4.013-114.1.876-170.683 3.092-34.016-2.482-72.412-7.882-99.264 3.51-2.621 7.169-5.24 10.506-7.58 9.916 41.584 14.963 84.98 8.693 127.7-14.12 100.406-4.074 140.762-1.1 149.827h7.97c-.507-1.586-5.449-12.623-6.532-47.03 30.17 32.851 42.934 49.163 43.067 49.334a3.941 3.941 0 0 0 2.961 1.446c18.523-3.249 25.773-27.876 23.429-68.05 22.067 22.679 75.924 64.535 139 59.955 19.851 21.128 74.673 23.783 119.179 11.518a3.773 3.773 0 0 0 .842-6.969c-7.889-4.176-24.739-14.408-25.178-21.818.166-1.759 2.853-3.548 7.373-4.909a3.751 3.751 0 0 0 .789-6.841c-.192-.112-19.334-11.344-24.055-29.885-2.5-9.826-.525-20.12 5.877-30.6 14.715-25 28.289-12.068 36.647 4.409 1.683 3.825 7.624 2.182 7.141-1.945-.157-1.512-3.973-35.935-27.11-73.056h21.8a14.948 14.948 0 0 0 14.931-14.931v-12.443c0-.113-.024-.219-.033-.33.103-.157.009-150.698.039-150.925zm-350.964 3.98a5.858 5.858 0 0 1 3.7 3.223l4.356 9.548a10.978 10.978 0 0 1 -2.669 12.81 13.4 13.4 0 0 0 -7.435-11.121c.534-4.892.736-10.118-3.329-13.478a6.071 6.071 0 0 1 5.377-.982zm41.261-74.174c-34.904 11.256-58.627 24.017-70.388 31.143a174.354 174.354 0 0 1 -1.926-21.751c31.063-16.234 108.885-49.1 205.817-31.71-47.351 1.5-92.136 8.977-133.503 22.318zm140.078-42.006a362.267 362.267 0 0 1 67.984 22.354c-14.56-1.019-25.1-1.354-41.664-2.734-110.049-31.3-201.336 4.441-238.71 23.351a151.094 151.094 0 0 1 4.042-31.07 381.333 381.333 0 0 1 208.348-11.901zm-229.842 29.712c1.156-7.278 6.335-11.691 12.988-14.169-9.627 47.591 5.061 88.689 11.449 103.457a73.324 73.324 0 0 0 -8.656 5.617c-20.313-41.495-18.666-77.105-15.781-94.905zm4.559 123.285c-2.583-4.834 8.833-21.331 30.368-30.758a3.08 3.08 0 0 1 2.9.275c2.382 1.515 1.125 5.571 1.066 8.45l-16.467 11.189a3.75 3.75 0 0 0 4.215 6.2l16.307-11.078c3.851 1.964 4.316 5.927 2.251 9.845l-16.094 11.223c-3.021 1.95-1.374 6.963 2.148 6.827a3.735 3.735 0 0 0 2.141-.674l14.275-9.951c3.236 3.183 4.552 8.28.3 11.181-5.606 3.794-16.237 11.124-24.446 17.588a4.326 4.326 0 0 1 -6.992-4.095 22.918 22.918 0 0 1 .7-2.751 3.8 3.8 0 0 0 -2.516-4.733c-4.455-1.436-6.825-5.292-3.671-10.79a3.8 3.8 0 0 0 -2.623-5.414c-.03-.006-2.846-.619-3.862-2.53zm3.978 141.061c3.9 7.3 10.616 14.669 22.1 19.331-1.863 17.014-3.922 34.758-5.235 50.827-14.597-24.731-17.222-51.817-16.865-70.158zm25.111-10.146c-.664 7.293-1.405 14.528-2.168 21.677-21.975-10.195-20.915-32.243-20.808-33.819a688.617 688.617 0 0 0 4.822-81.3 11.663 11.663 0 0 0 11.073-.2c5.07 26.116 9.962 61.942 7.081 93.642zm342.121-155.515v15.671a48.152 48.152 0 0 1 -20.04 39.379 11.81 11.81 0 0 0 -5.031 9.649c-.286 7.23 5.969 10.032 10.482 14.348 9.829 9.306 15.088 23.045 14.589 36.956-5.643-10.864-23.006-32.408-39.664-27.012-13.951 5.259-23 16.873-28.533 27.012-.491-13.906 4.779-27.628 14.613-36.938 4.539-4.359 10.769-7.071 10.506-14.365a11.81 11.81 0 0 0 -5.033-9.652 48.187 48.187 0 0 1 -20.086-39.415v-15.633zm7.581 0h8.617v130.649h-8.617zm-7.5 85.812a53.552 53.552 0 0 0 -9.492-12.191 62.774 62.774 0 0 0 -6.334-5.293 4.414 4.414 0 0 1 .052-7.165 53.859 53.859 0 0 0 15.773-17.458zm-68.277-.094v-41.922a53.928 53.928 0 0 0 13.816 15.941c1.725 1.258 3.912 2.578 3.8 5.007a4.367 4.367 0 0 1 -1.827 3.585 62.765 62.765 0 0 0 -6.357 5.31 53.6 53.6 0 0 0 -9.432 12.076zm-7.5 44.931h-8.618v-130.649h8.618zm38.678-34.641a8.272 8.272 0 0 1 5.838 0c17.648 6.654 26.541 26.256 29.8 35.3h-65.443c3.24-9.039 12.104-28.626 29.805-35.3zm-16.664-140.7c.038-4.051 4.976-6.633 8.608-5.108 2.031.776 4.484 2.545 6.6.833.618-.451 6.21-4.249 12.488 1.014a3.788 3.788 0 0 0 5.1-.258 10.683 10.683 0 0 1 3.235-2.041c3.652-1.674 8.779 1.078 8.694 5.2v21.236c-.512 5.256-6.979 4.343-10.866 2.513v-16.353a3.75 3.75 0 1 0 -7.5 0v16.314c-3.945 1.822-6.177 2.006-9.659.178v-16.492a3.75 3.75 0 0 0 -7.5 0v16.709c-2.675 1.482-9.683 1.9-9.8-2.941zm-30.632 28.495a7.44 7.44 0 0 1 7.432-7.431h15.1c.308 10.749 13.269 13.691 21.253 9.065 6.253 3.241 10.945 2.553 16.884-.233 8.8 4.777 21.617 2.617 22.17-8.832h10.243a7.44 7.44 0 0 1 7.431 7.431v8.7h-100.513zm-51.248 40.3-.019.024a31.54 31.54 0 0 0 -5.807-11.176 112.993 112.993 0 0 0 4.78-17.422c7.561 8.78 8.01 18.975 1.046 28.574zm3.607 76.589c-.968 8.545-7.028 14.831-15.911 13.655-6.422-.816-7.219-4.393-7.056-5.644-.132-3.039 2.594-7.037 5.933-6.862a3.769 3.769 0 0 0 3.889-3.606c-.422-6.474-9.219-3.729-12.346-.6-7.388 6.811-8.12 21.1 7.978 24.05a20.757 20.757 0 0 0 9.543-.533c-8.443 14.729-9 32.813 3.171 46.095 7.2 8.106 8.609 18.289 3.21 23.182-3.854 3.494-10.426-1.169-14-4.26-8.174-7.637-20.816-4.924-25.155-14.734a15.062 15.062 0 0 0 4.465-20.8c-3.916-6.895-12.019-5.792-15.754-4.247a3.75 3.75 0 0 0 2.845 6.94c.193-.078 4.758-1.856 6.389 1.012 3.508 5.4 0 10.033-3.643 11.832-17.541 6.306-22.433-8.717-23.169-21.633a19.149 19.149 0 0 0 -8.434-14.645c-18.811-12.048-20.875-29.213-13.185-41.323 6.094.558 12.843-.891 16.41-8.57 1.915-4.774 1.425-12.393-3.88-11.565a3.751 3.751 0 0 0 -2.931 4.42 6.562 6.562 0 0 1 -.051 4.117c-2.281 5.172-8.171 4.327-9.888 3.958-1.061-.341-6.228-1.273-8.056-12.964a20.779 20.779 0 0 1 5.221-16.572c7.158 7.835 16.173 4.108 22.033-6.582 7.113-12.285 14.373-11.628 14.589-11.607 4.865.711 6.06-6.533 1.2-7.4-.5-.081-12.409-1.8-22.279 15.254-4.147 6.964-7.644 9.693-11.379 3.431-1.267-9-1.072-14.409 3.069-21.835 11.458-19.565 22.547-15.845 34.165-12.371a19.387 19.387 0 0 0 9.346-.8c11.789-4.069 22.362 2.537 23.318 3.16 12.577 10.42 11.56 21.965 8.706 30.528-2.091 6.243-9.991 4.515-12.125-.8-4.256-9.513-14.681-14.931-15.122-15.157-4.423-2.17-7.769 4.356-3.416 6.677.084.043 8.553 4.527 11.692 11.543 2.623 6.036 9.3 10.252 15.813 9.1-.565 6.019.579 12.128 4.411 17 8.726 11.324 10.837 21.357 10.384 29.156zm-40.555-156.844c20.31-.763 33.031 17.971 30.612 36.844a144.328 144.328 0 0 1 -5.382 26.378 34.779 34.779 0 0 0 -30.783-4.677c-1.85.789-6.558 1.125-7.4-.745-.228-.476-.8-2.393 1.4-7.09a8.9 8.9 0 0 0 -6.692-12.535l-4.939-.735c-4.879-.641-5.975 6.6-1.1 7.417l4.939.736a1.3 1.3 0 0 1 .975.683 1.375 1.375 0 0 1 .029 1.257 21.437 21.437 0 0 0 -2.333 8.969 27.5 27.5 0 0 0 -16.181 2.108c.809-20.554.256-57.098 36.855-58.61zm-57.932 61.357c1.082-8.6 8.919-11.922 14.219-17.56-.629 7.63-.721 14.933-.63 19.874a44.717 44.717 0 0 0 -8.7 11.27c-4.034-4.022-5.679-8.574-4.889-13.584zm-85.466 172.886q1.872-13.309 2.517-26.708c14.622 42.749 29.791 101.2 32.342 164.6-7.433-8.869-21.032-24.623-42.106-47.368.011-22.18 1.8-51.791 7.247-90.524zm61.2 71.755c-1.111-7.895-2.406-15.8-3.863-23.528a3.75 3.75 0 1 0 -7.37 1.39c8.3 37.6 7.525 84.848-7.4 93.763-2.356-76.344-22.158-145.391-39.776-191.056a341.821 341.821 0 0 0 -3.408-39.473c8.074 12.841 22.65 38.942 35.278 77.18a3.75 3.75 0 0 0 7.122-2.352c-14.244-43.132-30.618-70.76-38.287-82.362 15.219 1.053 24.177 5.727 24.964 6.153.869.595 14.824 10.662 21.45 46.184 6.635 46.305 33.048 127.372 77.526 163.825-41.151-19.721-62.635-45.195-66.241-49.724zm168.247 79.553c-17-5.2-23.578-13.026-23.626-13.084-24.589-25.711-45.952-52.261-63.264-78.876a3.75 3.75 0 1 0 -6.285 4.093 544.371 544.371 0 0 0 58.287 73.759 159.337 159.337 0 0 1 -40.332-4.909c-72.538-45.167-90.266-140.194-96.951-176.012-5.84-31.31-17.26-44.647-22.379-49.23 6.084-13.751 17.359-12.254 17.836-12.186a3.753 3.753 0 0 0 3.954-1.988c11.554-22.547 22.17-30.208 28.867-32.717.076 1.977.278 3.945.539 5.937-3.534 3.329-10.958 12-9.2 24.8 1.32 9.615 5.377 14.47 8.678 16.878-4.351 7.793-7.664 21.09.278 34.384.5 5.194 3.791 30.869 21.833 69.956a3.75 3.75 0 1 0 6.81-3.144c-11.464-24.833-16.8-44.243-19.248-55.916 4.344 3.914 11.551 7.015 11.608 13.859.559 16.429 9.2 34.386 29.445 29.3 1.79 4.306 6.4 10.53 18.251 13.2a20.511 20.511 0 0 1 8.907 4.337c6.931 5.842 11.686 7.542 16.415 7.333 19.986 45.65 57.436 94.284 122.936 125.147 2.263 1.684 4.554 3.22 6.668 4.55-39.721 8.371-65.279 5.045-80.032.529zm89.6-110.369c-13.228-13.305-28.324-8.585-39.252 10.086-6.643 10.869-9.173 21.71-7.565 32.288-53.943-55.5-77.774-124.632-78.024-125.371a3.75 3.75 0 0 0 -7.1 2.4c.272.805 27.873 80.986 91.021 139.176a66.342 66.342 0 0 0 16.651 18.39c-5.19 3.093-7.237 7.856-5.413 13.094-52.064-28.948-86.406-74.47-102.493-112.655 9.259-7.756 8.187-22.547-2.1-34.172-10.883-11.865-8.744-27.52-.707-40.1.96-.867 7.145-11.387 7.284-21.227.551-9.33-1.881-21.078-11.83-33.982-4-5.33-3.645-12.221-1.158-18.354a40.6 40.6 0 0 0 3.195-14.9 30.412 30.412 0 0 0 6.952-8.4c18.507-5.632 29.411-16.437 35.6-25.492.034.331-.063 134.617.034 134.916-.01.111-.034.217-.034.33v12.446a14.949 14.949 0 0 0 14.918 14.932h54.935a192.165 192.165 0 0 1 25.085 56.595zm13.06-71.526a7.44 7.44 0 0 1 -7.431 7.431h-85.65a7.44 7.44 0 0 1 -7.432-7.431v-8.7h100.512z"/><path d="m395.618 202.613c17.607-1.091 25.524-26.4 25.244-26.715a3.775 3.775 0 0 0 -3.637-4.665h-41.383a3.749 3.749 0 0 0 -2.958 1.444c-2.977 1.997 5.216 25.491 22.734 29.936zm16.313-23.88c-2.268 5.362-7.041 13.751-15.4 16.349-8.358-2.6-13.132-10.989-15.4-16.349z"/><path d="m259.133 141.585c-.089.12 7-1.1 7.18-1.1 4.851-.861 3.7-8.1-1.185-7.407l-6.583 1.054c-4.512.76-3.945 7.426.588 7.453z"/><path d="m240.246 360.8c-5.379.091-5.378 8.094 0 8.184 5.38-.096 5.379-8.098 0-8.184z"/></g></svg>