<?xml version="1.0" encoding="UTF-8"?>
<svg xmlns="http://www.w3.org/2000/svg" xmlns:xlink="http://www.w3.org/1999/xlink" version="1.1" id="Capa_1" x="0px" y="0px" viewBox="0 0 512 512" style="enable-background:new 0 0 512 512;" xml:space="preserve" width="512" height="512">
<g>
	<g>
		<path style="fill:#26A6FE;" d="M490.729,406.92H21.271c-7.606,0-13.771-6.166-13.771-13.771V113.677&#10;&#9;&#9;&#9;c0-7.606,6.166-13.771,13.771-13.771h469.457c7.606,0,13.771,6.166,13.771,13.771v279.472&#10;&#9;&#9;&#9;C504.5,400.755,498.334,406.92,490.729,406.92z"/>
		<path style="fill:#F9F3F1;" d="M256,367.754H54.616c-4.142,0-7.5-3.358-7.5-7.5V115.258c0-25.476,20.652-46.128,46.128-46.128&#10;&#9;&#9;&#9;h116.627c25.476,0,46.129,20.652,46.129,46.128V367.754z"/>
		<path style="fill:#F3EAE6;" d="M47.116,330.254v30c0,4.142,3.358,7.5,7.5,7.5H256v-30H54.616&#10;&#9;&#9;&#9;C50.474,337.754,47.116,334.396,47.116,330.254z"/>
		<path style="fill:#F9F3F1;" d="M256,367.754h201.384c4.142,0,7.5-3.358,7.5-7.5V115.258c0-25.476-20.652-46.128-46.128-46.128&#10;&#9;&#9;&#9;H302.129C276.652,69.13,256,89.782,256,115.258V367.754z"/>
		<path style="fill:#F3EAE6;" d="M432.725,71.289c1.399,4.407,2.159,9.099,2.159,13.969v244.995c0,4.142-3.358,7.5-7.5,7.5H256v30&#10;&#9;&#9;&#9;h201.384c4.142,0,7.5-3.358,7.5-7.5V115.258C464.884,94.653,451.371,77.208,432.725,71.289z"/>
		<path style="fill:#5B5555;" d="M338.22,441.666l-10.491-10.167c-1.645-1.594-4.259-1.594-5.905,0l-10.491,10.167&#10;&#9;&#9;&#9;c-2.691,2.608-7.195,0.701-7.195-3.047v-70.865h41.277v70.865C345.415,442.367,340.911,444.274,338.22,441.666z"/>
		<path style="fill:#5B5555;" d="M199.584,309.847h-92.95c-9.687,0-17.541-7.853-17.541-17.541V183.603&#10;&#9;&#9;&#9;c0-35.355,28.661-64.016,64.016-64.016h0c35.355,0,64.016,28.661,64.016,64.016v108.702&#10;&#9;&#9;&#9;C217.125,301.993,209.272,309.847,199.584,309.847z"/>
		<path style="fill:#FD6930;" d="M184.04,191.221h-12.552c-2.227,0-4.032-1.805-4.032-4.032v-17.863&#10;&#9;&#9;&#9;c0-2.227-1.805-4.032-4.032-4.032h-20.63c-2.227,0-4.032,1.805-4.032,4.032v17.863c0,2.227-1.805,4.032-4.032,4.032h-12.552&#10;&#9;&#9;&#9;c-2.227,0-4.032,1.805-4.032,4.032v20.63c0,2.227,1.805,4.032,4.032,4.032h12.552c2.227,0,4.032,1.805,4.032,4.032v48.163&#10;&#9;&#9;&#9;c0,2.227,1.805,4.032,4.032,4.032h20.63c2.227,0,4.032-1.805,4.032-4.032v-48.163c0-2.227,1.805-4.032,4.032-4.032h12.552&#10;&#9;&#9;&#9;c2.227,0,4.032-1.805,4.032-4.032v-20.63C188.072,193.026,186.266,191.221,184.04,191.221z"/>
		<path style="fill:#FDC102;" d="M413.723,199.025H307.282c-10.951,0-19.828-8.877-19.828-19.828v-50.625&#10;&#9;&#9;&#9;c0-10.951,8.877-19.828,19.828-19.828h106.441c10.951,0,19.828,8.877,19.828,19.828v50.625&#10;&#9;&#9;&#9;C433.551,190.148,424.674,199.025,413.723,199.025z"/>
	</g>
	<g>
		<path style="fill:none;stroke:#000000;stroke-width:15;stroke-linecap:round;stroke-linejoin:round;stroke-miterlimit:10;" d="&#10;&#9;&#9;&#9;M413.723,199.025H307.282c-10.951,0-19.828-8.877-19.828-19.828v-50.625c0-10.951,8.877-19.828,19.828-19.828h106.441&#10;&#9;&#9;&#9;c10.951,0,19.828,8.877,19.828,19.828v50.625C433.551,190.148,424.674,199.025,413.723,199.025z"/>
		<path style="fill:none;stroke:#000000;stroke-width:15;stroke-linecap:round;stroke-linejoin:round;stroke-miterlimit:10;" d="&#10;&#9;&#9;&#9;M199.584,309.847h-92.95c-9.687,0-17.541-7.853-17.541-17.541V183.603c0-35.355,28.661-64.016,64.016-64.016h0&#10;&#9;&#9;&#9;c35.355,0,64.016,28.661,64.016,64.016v108.702C217.125,301.993,209.272,309.847,199.584,309.847z"/>
		<path style="fill:none;stroke:#000000;stroke-width:15;stroke-linecap:round;stroke-linejoin:round;stroke-miterlimit:10;" d="&#10;&#9;&#9;&#9;M184.04,191.221h-12.552c-2.227,0-4.032-1.805-4.032-4.032v-17.863c0-2.227-1.805-4.032-4.032-4.032h-20.63&#10;&#9;&#9;&#9;c-2.227,0-4.032,1.805-4.032,4.032v17.863c0,2.227-1.805,4.032-4.032,4.032h-12.552c-2.227,0-4.032,1.805-4.032,4.032v20.63&#10;&#9;&#9;&#9;c0,2.227,1.805,4.032,4.032,4.032h12.552c2.227,0,4.032,1.805,4.032,4.032v48.163c0,2.227,1.805,4.032,4.032,4.032h20.63&#10;&#9;&#9;&#9;c2.227,0,4.032-1.805,4.032-4.032v-48.163c0-2.227,1.805-4.032,4.032-4.032h12.552c2.227,0,4.032-1.805,4.032-4.032v-20.63&#10;&#9;&#9;&#9;C188.072,193.026,186.266,191.221,184.04,191.221z"/>
		<path style="fill:none;stroke:#000000;stroke-width:15;stroke-linecap:round;stroke-linejoin:round;stroke-miterlimit:10;" d="&#10;&#9;&#9;&#9;M45.336,406.92H21.271c-7.606,0-13.771-6.166-13.771-13.771V113.677c0-7.606,6.166-13.771,13.771-13.771h28.45"/>
		
			<line style="fill:none;stroke:#000000;stroke-width:15;stroke-linecap:round;stroke-linejoin:round;stroke-miterlimit:10;" x1="299.699" y1="406.92" x2="80.336" y2="406.92"/>
		<path style="fill:none;stroke:#000000;stroke-width:15;stroke-linecap:round;stroke-linejoin:round;stroke-miterlimit:10;" d="&#10;&#9;&#9;&#9;M467.722,99.905h23.007c7.606,0,13.771,6.166,13.771,13.771v279.472c0,7.606-6.166,13.771-13.771,13.771H350.013"/>
		<path style="fill:none;stroke:#000000;stroke-width:15;stroke-linecap:round;stroke-linejoin:round;stroke-miterlimit:10;" d="&#10;&#9;&#9;&#9;M256,367.754H54.616c-4.142,0-7.5-3.358-7.5-7.5V115.258c0-25.476,20.652-46.128,46.128-46.128h116.627&#10;&#9;&#9;&#9;c25.476,0,46.129,20.652,46.129,46.128V367.754z"/>
		<path style="fill:none;stroke:#000000;stroke-width:15;stroke-linecap:round;stroke-linejoin:round;stroke-miterlimit:10;" d="&#10;&#9;&#9;&#9;M317.156,69.13h-15.027C276.652,69.13,256,89.782,256,115.258"/>
		<path style="fill:none;stroke:#000000;stroke-width:15;stroke-linecap:round;stroke-linejoin:round;stroke-miterlimit:10;" d="&#10;&#9;&#9;&#9;M256,367.754h201.384c4.142,0,7.5-3.358,7.5-7.5V115.258c0-25.476-20.652-46.128-46.128-46.128h-65.6"/>
		<path style="fill:none;stroke:#000000;stroke-width:15;stroke-linecap:round;stroke-linejoin:round;stroke-miterlimit:10;" d="&#10;&#9;&#9;&#9;M345.415,370.754v67.865c0,3.748-4.504,5.655-7.195,3.047l-10.491-10.167c-1.645-1.594-4.259-1.594-5.905,0l-10.491,10.167&#10;&#9;&#9;&#9;c-2.691,2.608-7.195,0.701-7.195-3.047v-67.865"/>
		
			<line style="fill:none;stroke:#000000;stroke-width:15;stroke-linecap:round;stroke-linejoin:round;stroke-miterlimit:10;" x1="320.297" y1="139.501" x2="400.708" y2="139.501"/>
		
			<line style="fill:none;stroke:#000000;stroke-width:15;stroke-linecap:round;stroke-linejoin:round;stroke-miterlimit:10;" x1="320.297" y1="167.462" x2="400.708" y2="167.462"/>
		
			<line style="fill:none;stroke:#000000;stroke-width:15;stroke-linecap:round;stroke-linejoin:round;stroke-miterlimit:10;" x1="287.454" y1="233.977" x2="433.551" y2="233.977"/>
		
			<line style="fill:none;stroke:#000000;stroke-width:15;stroke-linecap:round;stroke-linejoin:round;stroke-miterlimit:10;" x1="287.454" y1="262.87" x2="433.551" y2="262.87"/>
		
			<line style="fill:none;stroke:#000000;stroke-width:15;stroke-linecap:round;stroke-linejoin:round;stroke-miterlimit:10;" x1="287.454" y1="291.763" x2="433.551" y2="291.763"/>
		
			<line style="fill:none;stroke:#000000;stroke-width:15;stroke-linecap:round;stroke-linejoin:round;stroke-miterlimit:10;" x1="314.217" y1="320.656" x2="406.788" y2="320.656"/>
	</g>
</g>















</svg>
